<svg width="26" height="26" viewBox="0 0 26 26" fill="none" xmlns="http://www.w3.org/2000/svg">
<path d="M20.3489 20.3487L20.3489 20.3486C24.401 16.2964 24.401 9.70301 20.3489 5.65082L20.3489 5.65081C16.2967 1.59795 9.70271 1.59846 5.65072 5.65081L5.65072 5.65082C1.59873 9.70301 1.59873 16.2964 5.65072 20.3486C6.00463 20.7026 6.00467 21.2764 5.65081 21.6304L20.3489 20.3487ZM20.3489 20.3487C17.0651 23.6336 11.9473 24.3372 7.90525 22.0619C7.46894 21.816 6.91623 21.9707 6.67095 22.4068C6.4252 22.8429 6.57984 23.3957 7.01595 23.6411M20.3489 20.3487L7.01595 23.6411M4.51067 21.489L4.36924 21.6305C-0.389745 16.8711 -0.389749 9.12835 4.36924 4.36914L4.36925 4.36914C9.12845 -0.389851 16.871 -0.390224 21.6307 4.36913L21.4893 4.51056L21.6307 4.36914C26.3897 9.12835 26.3897 16.8711 21.6307 21.6305L21.4893 21.489L21.6307 21.6305C19.286 23.9752 16.1463 25.1995 12.979 25.1995L4.51067 21.489ZM4.51067 21.489L4.36925 21.6305C4.72311 21.9843 5.29705 21.9845 5.65071 21.6305L4.51067 21.489ZM7.01595 23.6411C8.87856 24.6898 10.9349 25.1999 12.9789 25.1995L7.01595 23.6411Z" fill="white" stroke="white" stroke-width="0.4"/>
</svg>
