<svg width="31" height="30" viewBox="0 0 31 30" fill="none" xmlns="http://www.w3.org/2000/svg">
<path d="M29.5807 2.66264L27.5083 0.614838C26.9475 0.0540646 26.0211 0.0540646 25.4359 0.614838L15.0982 10.9523L4.56561 0.419787C4.00459 -0.141231 3.0781 -0.141231 2.49319 0.419787L0.420763 2.49221C-0.140254 3.05298 -0.140254 3.97948 0.420763 4.56464L10.9292 15.073L0.615815 25.4352C0.0550412 25.9959 0.0550412 26.9224 0.615815 27.5076L2.68824 29.58C3.24901 30.1408 4.17551 30.1408 4.76066 29.58L15.0982 19.2423L25.4359 29.58C25.9967 30.1408 26.9232 30.1408 27.5083 29.58L29.5807 27.5076C30.1415 26.9468 30.1415 26.0203 29.5807 25.4352L19.2186 15.0974L29.5564 4.75993C30.1415 4.17429 30.1415 3.24779 29.5807 2.66264Z" fill="#242424"/>
</svg>
