<svg width="18" height="30" viewBox="0 0 18 30" fill="none" xmlns="http://www.w3.org/2000/svg">
<path d="M15.3896 10.2329H12.3467V8.66834C12.3467 8.39468 12.3652 8.2155 12.3891 8.09974C12.4129 7.98436 12.4395 7.94451 12.4469 7.9357C12.4499 7.93303 12.5866 7.80192 13.256 7.80192H13.256L15.5629 7.80106C15.5629 7.80106 15.563 7.80106 15.563 7.80106C16.3958 7.80103 17.0734 7.12486 17.0734 6.29285V2.26904C17.0734 1.43835 16.3967 0.762251 15.5651 0.760828L15.5651 0.760828L12.1387 0.755273H12.1385C9.9899 0.755273 8.1512 1.4634 6.83232 2.81409C5.51964 4.15837 4.83202 6.02921 4.83202 8.21289V10.2331H2.36087C1.52788 10.2331 0.85 10.9092 0.85 11.7413V16.0751C0.85 16.9069 1.52786 17.5833 2.36087 17.5833H4.83202V27.5471C4.83202 28.3791 5.5099 29.0553 6.34289 29.0553H10.8356C11.6686 29.0553 12.3467 28.3792 12.3467 27.5471V17.5831H15.4005C16.2334 17.5831 16.9113 16.907 16.9113 16.0753C16.9113 16.0753 16.9113 16.0753 16.9113 16.0753L16.9131 11.7416V11.7415C16.9131 11.1948 16.6149 10.6896 16.136 10.4226L16.1359 10.4225C15.9125 10.298 15.6543 10.2329 15.3896 10.2329ZM10.4018 16.6984V27.1138H6.77671V16.6984C6.77671 16.1152 6.30177 15.6416 5.71832 15.6416H2.79469V12.1746H5.71832C6.30179 12.1746 6.77671 11.7007 6.77671 11.1177V8.21289C6.77671 6.49568 7.29506 5.11975 8.21503 4.17383C9.13451 3.22841 10.4705 2.69679 12.137 2.69675C12.1371 2.69675 12.1371 2.69675 12.1372 2.69675L15.1287 2.70164V5.85965L13.2556 5.86044C13.2555 5.86044 13.2555 5.86044 13.2555 5.86044C12.6111 5.86044 11.6237 5.93341 10.9897 6.6502C10.4649 7.24337 10.4018 8.024 10.4018 8.66834V11.1177C10.4018 11.7009 10.8767 12.1746 11.4602 12.1746H14.9681L14.9667 15.6416H11.4604C10.877 15.6416 10.4018 16.1152 10.4018 16.6984Z" fill="#242424" stroke="#242424" stroke-width="0.3"/>
</svg>
