<svg width="28" height="29" viewBox="0 0 28 29" fill="none" xmlns="http://www.w3.org/2000/svg">
<g clip-path="url(#clip0_260:82)">
<path d="M20.2727 0.905273H7.72678C3.46623 0.905273 0 4.37167 0 8.63221V21.1782C0 25.4389 3.46623 28.9051 7.72678 28.9051H20.2727C24.5336 28.9051 27.9998 25.4387 27.9998 21.1782V8.63221C28 4.37167 24.5336 0.905273 20.2727 0.905273ZM25.5157 21.1782C25.5157 24.069 23.1638 26.4208 20.2729 26.4208H7.72678C4.83607 26.421 2.48428 24.069 2.48428 21.1782V8.63221C2.48428 5.74151 4.83607 3.38955 7.72678 3.38955H20.2727C23.1636 3.38955 25.5156 5.74151 25.5156 8.63221V21.1782H25.5157Z" fill="#242424"/>
<path d="M13.9999 7.69043C10.0216 7.69043 6.78503 10.927 6.78503 14.9053C6.78503 18.8834 10.0216 22.1198 13.9999 22.1198C17.9782 22.1198 21.2147 18.8834 21.2147 14.9053C21.2147 10.927 17.9782 7.69043 13.9999 7.69043ZM13.9999 19.6353C11.3916 19.6353 9.26932 17.5134 9.26932 14.9051C9.26932 12.2966 11.3914 10.1745 13.9999 10.1745C16.6084 10.1745 18.7305 12.2966 18.7305 14.9051C18.7305 17.5134 16.6082 19.6353 13.9999 19.6353Z" fill="#242424"/>
<path d="M21.5174 5.58398C21.0387 5.58398 20.5685 5.77776 20.2305 6.11728C19.8908 6.45514 19.6956 6.9255 19.6956 7.40579C19.6956 7.88459 19.891 8.35479 20.2305 8.6943C20.5684 9.03217 21.0387 9.2276 21.5174 9.2276C21.9977 9.2276 22.4664 9.03217 22.8059 8.6943C23.1454 8.35479 23.3392 7.88443 23.3392 7.40579C23.3392 6.9255 23.1454 6.45514 22.8059 6.11728C22.468 5.77776 21.9977 5.58398 21.5174 5.58398Z" fill="#242424"/>
</g>
<defs>
<clipPath id="clip0_260:82">
<rect width="28" height="28" fill="white" transform="translate(0 0.905273)"/>
</clipPath>
</defs>
</svg>
