<svg width="24" height="24" viewBox="0 0 24 24" fill="none" xmlns="http://www.w3.org/2000/svg">
<g clip-path="url(#clip0_63:10582)">
<path d="M23.7068 22.2936L16.8818 15.4687C18.2038 13.8357 18.9998 11.7607 18.9998 9.50078C18.9998 4.26283 14.7378 0.000854492 9.49988 0.000854492C4.26193 0.000854492 0 4.26278 0 9.50073C0 14.7387 4.26197 19.0007 9.49992 19.0007C11.7599 19.0007 13.8349 18.2047 15.4678 16.8827L22.2928 23.7076C22.4878 23.9026 22.7438 24.0006 22.9998 24.0006C23.2558 24.0006 23.5118 23.9026 23.7068 23.7076C24.0978 23.3166 24.0978 22.6846 23.7068 22.2936ZM9.49992 17.0007C5.36395 17.0007 2 13.6367 2 9.50073C2 5.36476 5.36395 2.0008 9.49992 2.0008C13.6359 2.0008 16.9998 5.36476 16.9998 9.50073C16.9998 13.6367 13.6359 17.0007 9.49992 17.0007Z" fill="#A3A3A3"/>
</g>
<defs>
<clipPath id="clip0_63:10582">
<rect width="24" height="24" fill="white"/>
</clipPath>
</defs>
</svg>
