<svg width="28" height="29" viewBox="0 0 28 29" fill="none" xmlns="http://www.w3.org/2000/svg">
<g clip-path="url(#clip0_260:102)">
<path d="M22.5406 27.4276C22.3219 27.4276 22.1047 27.3629 21.9183 27.2365L14.878 22.4609L11.102 25.178C10.8058 25.3909 10.4241 25.4446 10.0802 25.3216C9.73681 25.1984 9.47598 24.9139 9.38288 24.5611L7.48688 17.3759L0.712282 14.7854C0.285794 14.6223 0.00294603 14.2143 -0.000157317 13.7577C-0.00326066 13.301 0.273971 12.8892 0.698391 12.7202L26.4579 2.47035C26.5748 2.42069 26.6985 2.39202 26.8232 2.38434C26.8679 2.38168 26.9126 2.38168 26.9571 2.38419C27.2154 2.39956 27.4692 2.50478 27.6672 2.69896C27.6877 2.71906 27.7072 2.7396 27.7257 2.76103C27.8897 2.94841 27.9799 3.17687 27.9969 3.40962C28.001 3.46814 28.0007 3.5274 27.9956 3.58666C27.992 3.62893 27.9859 3.67104 27.9774 3.71286L23.6293 26.5267C23.5594 26.8932 23.3099 27.2 22.9653 27.3429C22.8286 27.3997 22.6843 27.4276 22.5406 27.4276ZM15.4962 20.2017L21.7674 24.4555L25.1507 6.70375L12.9313 18.4619L15.4666 20.1817C15.4768 20.1881 15.4866 20.1949 15.4962 20.2017ZM10.2756 19.2557L11.1153 22.4374L12.9244 21.1356L10.5555 19.5287C10.4454 19.4542 10.3511 19.3614 10.2756 19.2557ZM4.15773 13.7294L8.8095 15.5079C9.14274 15.6353 9.39426 15.9155 9.48529 16.2604L10.0752 18.4962C10.1023 18.2383 10.2192 17.9956 10.4091 17.8128L22.0524 6.60917L4.15773 13.7294Z" fill="#242424"/>
</g>
<defs>
<clipPath id="clip0_260:102">
<rect width="28" height="28" fill="white" transform="translate(0 0.905273)"/>
</clipPath>
</defs>
</svg>
