<svg width="28" height="29" viewBox="0 0 28 29" fill="none" xmlns="http://www.w3.org/2000/svg">
<g clip-path="url(#clip0_260:120)">
<path d="M23.1126 4.80518H4.88747C2.19248 4.80518 0 6.99832 0 9.69399V20.1169C0 22.8125 2.19248 25.0056 4.88747 25.0056H23.1128C25.8076 25.0056 28.0001 22.8125 28.0001 20.1169V9.69399C28 6.99832 25.8075 4.80518 23.1126 4.80518ZM25.9969 20.1168C25.9969 21.7079 24.703 23.0023 23.1126 23.0023H4.88747C3.297 23.0023 2.00312 21.7079 2.00312 20.1168V9.69385C2.00312 8.10271 3.297 6.8083 4.88747 6.8083H23.1128C24.7031 6.8083 25.997 8.10271 25.997 9.69385V20.1168H25.9969Z" fill="#242424"/>
<path d="M19.3762 14.0684L11.9518 9.17413C11.6443 8.97128 11.2502 8.95392 10.9257 9.12846C10.6013 9.30313 10.399 9.64193 10.399 10.0104V19.8001C10.399 20.1686 10.6013 20.5072 10.9257 20.682C11.0743 20.7622 11.2376 20.8017 11.4004 20.8017C11.593 20.8017 11.7851 20.7463 11.9518 20.6362L19.3762 15.7408C19.6573 15.5554 19.8265 15.2413 19.8265 14.9045C19.8265 14.5679 19.6573 14.2538 19.3762 14.0684ZM12.4021 17.94V11.8702L17.0054 14.9047L12.4021 17.94Z" fill="#242424"/>
</g>
<defs>
<clipPath id="clip0_260:120">
<rect width="28" height="28" fill="white" transform="translate(0 0.905273)"/>
</clipPath>
</defs>
</svg>
