<svg width="164" height="216" viewBox="0 0 164 216" fill="none" xmlns="http://www.w3.org/2000/svg">
<path d="M42.683 177.111H24.9863C23.2645 177.111 21.8687 178.506 21.8687 180.228C21.8687 181.95 23.2645 183.346 24.9863 183.346H42.683C44.4049 183.346 45.8007 181.95 45.8007 180.228C45.8007 178.506 44.4049 177.111 42.683 177.111Z" fill="#F0F0F0"/>
<path d="M92.3691 174.312H68.7349C67.013 174.312 65.6172 175.708 65.6172 177.429C65.6172 179.151 67.013 180.547 68.7349 180.547H92.3691C94.091 180.547 95.4868 179.151 95.4868 177.429C95.4868 175.708 94.091 174.312 92.3691 174.312Z" fill="#F0F0F0"/>
<path d="M92.3691 184.089H68.7349C67.013 184.089 65.6172 185.485 65.6172 187.207C65.6172 188.929 67.013 190.324 68.7349 190.324H92.3691C94.091 190.324 95.4868 188.929 95.4868 187.207C95.4868 185.485 94.091 184.089 92.3691 184.089Z" fill="#F0F0F0"/>
<path d="M145.224 181.33H112.538C110.816 181.33 109.42 182.725 109.42 184.447C109.42 186.169 110.816 187.565 112.538 187.565H145.224C146.946 187.565 148.341 186.169 148.341 184.447C148.341 182.725 146.946 181.33 145.224 181.33Z" fill="#F0F0F0"/>
<path d="M33.8352 124.073C26.2449 124.073 20.0703 130.248 20.0703 137.838C20.0703 145.428 26.2449 151.603 33.8352 151.603C41.425 151.603 47.6001 145.428 47.6001 137.838C47.6001 130.248 41.425 124.073 33.8352 124.073ZM33.8352 145.367C29.6836 145.367 26.3061 141.989 26.3061 137.838C26.3061 133.686 29.6836 130.309 33.8352 130.309C37.9868 130.309 41.3643 133.686 41.3643 137.838C41.3643 141.99 37.9868 145.367 33.8352 145.367Z" fill="#F0F0F0"/>
<path d="M95.4331 81.8864C85.8392 77.8403 75.2713 77.836 65.6757 81.8758C62.5647 83.1856 60.5678 86.3341 60.707 89.7103L60.9546 95.7209C61.02 97.3175 61.9438 98.7622 63.3649 99.4915C64.7873 100.221 66.5016 100.129 67.8384 99.2507C76.0369 93.8632 85.066 93.867 93.2628 99.2612C94.001 99.7471 94.8544 99.9931 95.7103 99.9931C96.4041 99.9931 97.0997 99.8311 97.7371 99.5046C99.1591 98.7753 100.083 97.3305 100.149 95.7331L100.397 89.7188C100.536 86.345 98.5411 83.1974 95.4331 81.8864ZM94.0424 92.4766C89.6862 90.1503 85.1149 88.9873 80.5424 88.9873C75.9774 88.9873 71.4116 90.1469 67.0614 92.4661L66.9373 89.4534C66.9049 88.6638 67.3701 87.9277 68.0952 87.6223C76.2453 84.1908 84.8606 84.1942 93.0097 87.6316C93.734 87.937 94.1989 88.6726 94.1664 89.4623L94.0424 92.4766Z" fill="#F0F0F0"/>
<path d="M96.6144 111.491C95.6395 110.497 94.3365 109.95 92.9449 109.95H68.1587C66.7671 109.95 65.4641 110.497 64.4892 111.49C63.5144 112.483 62.9918 113.796 63.0175 115.187L63.3651 134.14C63.4161 136.923 65.7227 139.187 68.5063 139.187H92.5973C95.3809 139.187 97.687 136.923 97.7385 134.14L98.0861 115.187C98.1118 113.796 97.5892 112.483 96.6144 111.491ZM91.5234 132.952H69.5798L69.2723 116.186H91.8309L91.5234 132.952Z" fill="#F0F0F0"/>
<path d="M128.881 145.823C118.298 145.823 110.008 151.937 110.008 159.742C110.008 167.547 118.298 173.661 128.881 173.661C139.464 173.661 147.754 167.547 147.754 159.742C147.754 151.937 139.464 145.823 128.881 145.823ZM128.881 167.425C122.031 167.425 116.244 163.906 116.244 159.742C116.244 155.577 122.031 152.059 128.881 152.059C135.731 152.059 141.518 155.577 141.518 159.742C141.518 163.906 135.731 167.425 128.881 167.425Z" fill="#F0F0F0"/>
<path d="M158.407 98.0736L144.625 87.1003C145.315 85.0034 145.912 81.6702 145.912 76.4143C145.912 68.4731 144.294 61.718 142.877 57.3231C143.753 56.4503 144.296 55.2439 144.296 53.9131V35.3647C144.296 32.7093 142.135 30.5492 139.48 30.5492H118.282C115.627 30.5492 113.467 32.7098 113.467 35.3647V53.9131C113.467 55.2443 114.01 56.4507 114.886 57.3231C113.469 61.718 111.851 68.4731 111.851 76.4143C111.851 81.6706 112.448 85.0039 113.138 87.1003L110.561 89.1521L110.814 74.5638C110.912 71.9131 109.91 69.3049 108.061 67.4021L96.0092 54.9959C94.7838 53.7342 94.1089 52.0714 94.1089 50.3128V45.1231C94.8075 44.2837 95.2284 43.2055 95.2284 42.0303V4.84378C95.2289 2.1728 93.056 0 90.3855 0H70.7185C68.0475 0 65.8747 2.1728 65.8747 4.84378V42.0299C65.8747 43.2051 66.2957 44.2829 66.9942 45.1227V50.3128C66.9942 52.0714 66.3193 53.7342 65.0943 54.9959L53.042 67.4025C51.1932 69.3058 50.1913 71.9143 50.2892 74.565L50.7119 98.8869C47.4512 97.4396 45.1729 94.2662 44.951 90.5901C46.2663 89.7494 47.1424 88.2793 47.1424 86.6059V70.7724C47.1424 68.1647 45.0206 66.0434 42.4129 66.0434H25.2545C22.6468 66.0434 20.525 68.1647 20.525 70.7724V86.6059C20.525 88.2793 21.4011 89.7489 22.7164 90.5901C22.4367 95.228 18.8833 99.0725 14.2192 99.6512C14.2184 99.6512 14.2175 99.6512 14.2167 99.6516C6.11178 100.654 0 107.569 0 115.735V125.481C0 127.203 1.39581 128.598 3.11769 128.598C4.83956 128.598 6.23537 127.203 6.23537 125.481V115.735C6.23537 110.722 9.98031 106.475 14.9511 105.844C15.2565 105.82 16.0368 105.799 17.1741 105.781C17.1774 105.781 17.1812 105.781 17.1846 105.781C17.4622 105.776 17.7612 105.772 18.0793 105.768C18.1856 105.767 18.2974 105.766 18.4083 105.764C18.4682 105.763 18.5256 105.763 18.5867 105.762C18.6745 105.761 18.7669 105.76 18.8576 105.759C18.947 105.758 19.0339 105.757 19.1258 105.756C26.4466 105.681 41.212 105.681 48.5353 105.756C48.6589 105.758 48.777 105.759 48.8963 105.76C48.955 105.761 49.0161 105.761 49.0739 105.762C49.1663 105.763 49.2536 105.764 49.3435 105.766C49.4228 105.766 49.5046 105.767 49.5818 105.768C50.0407 105.774 50.4575 105.781 50.8304 105.787L50.9987 115.472H15.9816C11.9899 115.472 8.74268 118.719 8.74268 122.711V187.019C8.74268 190.372 11.4706 193.1 14.8232 193.1H52.2886C52.2405 193.255 52.1655 193.386 52.0668 193.457C50.501 194.592 49.5974 196.426 49.6497 198.364L49.9252 208.545C49.9361 208.954 49.9872 209.35 50.058 209.739H8.88526C7.42491 209.739 6.23706 208.55 6.23706 207.091V140.001C6.23706 138.279 4.84125 136.883 3.11938 136.883C1.3975 136.883 0.00168797 138.279 0.00168797 140.001V207.089C0.00168797 211.987 3.98706 215.973 8.88568 215.973H154.174C154.178 215.973 154.174 215.973 154.178 215.973C159.37 215.973 163.594 211.749 163.594 206.557V108.835C163.594 104.621 161.703 100.699 158.407 98.0736ZM26.7617 72.2784H40.9075V85.0988H26.7617V72.2784ZM29.7789 99.4673C29.7714 99.4673 29.7638 99.4673 29.7562 99.4673C28.43 99.4698 27.1303 99.4741 25.8809 99.4791C25.872 99.4791 25.8628 99.4791 25.8539 99.4791C27.5741 97.1532 28.6738 94.3527 28.9252 91.3342H38.7439C38.9953 94.3527 40.095 97.1532 41.8152 99.4791C38.0378 99.4635 33.7926 99.4593 29.7789 99.4673ZM14.9785 122.709C14.9785 122.156 15.4286 121.706 15.9816 121.706H51.1092L51.6724 154.103H14.9785V122.709ZM14.9785 160.339H51.7808L51.8668 165.282H14.9785V160.339ZM14.9785 186.862V171.517H51.9748L52.2414 186.862H14.9785ZM72.1105 6.23579H88.993V11.0522H72.1105V6.23579ZM72.1105 17.288H88.993V40.6375H72.1105V17.288ZM104.946 208.375C104.925 209.139 104.311 209.737 103.547 209.737C103.546 209.737 103.546 209.737 103.546 209.737H57.5576C56.7937 209.737 56.1791 209.139 56.1584 208.375L55.8885 198.384C57.6162 197.049 58.6185 194.911 58.5788 192.623L56.5246 74.4225C56.5246 74.4145 56.5225 74.3562 56.5225 74.3482C56.4828 73.3861 56.8452 72.4378 57.5159 71.7473L69.5682 59.3406C71.9299 56.9093 73.2308 53.703 73.2308 50.3128V46.8737H87.874V50.3128C87.874 53.703 89.1749 56.9088 91.5371 59.3406L103.589 71.7473C104.26 72.4382 104.622 73.386 104.583 74.3486C104.583 74.3503 104.581 74.4208 104.581 74.4225L102.526 192.623C102.487 194.911 103.489 197.049 105.217 198.384L104.946 208.375ZM119.702 36.7846H138.06V41.5819H119.702V36.7846ZM119.702 47.3617H138.06V52.4928H119.702V47.3617ZM120.986 58.7286H136.777C137.84 61.9125 139.089 66.6643 139.52 72.3374H118.243C118.674 66.6643 119.922 61.9125 120.986 58.7286ZM154.178 209.737H111.046C111.117 209.349 111.168 208.952 111.179 208.544L111.335 202.751H157.358V206.557H157.358C157.358 208.31 155.932 209.737 154.178 209.737ZM157.359 112.043H157.358H130.027C128.306 112.043 126.91 113.439 126.91 115.161C126.91 116.883 128.306 118.278 130.027 118.278H157.358V196.515H111.199C110.834 195.301 110.09 194.218 109.037 193.455C108.866 193.331 108.755 193.04 108.76 192.731L109.669 140.488C110.721 141.523 112.135 142.095 113.587 142.095C114.347 142.095 115.117 141.939 115.85 141.612C124.741 137.646 133.022 137.646 141.912 141.612C141.912 141.612 141.912 141.612 141.913 141.612C144.498 142.764 147.54 141.792 148.988 139.349L151.39 135.298C152.195 133.939 152.389 132.295 151.92 130.786C151.45 129.273 150.356 128.024 148.918 127.359C135.976 121.369 122.857 121.212 109.905 126.883L110.055 118.278H115.397C117.119 118.278 118.515 116.883 118.515 115.161C118.515 113.439 117.119 112.043 115.397 112.043H110.163L110.421 97.2346L118.953 90.442C119.646 89.8903 120.071 89.0694 120.123 88.1848C120.169 87.3994 119.916 86.63 119.422 86.0272C119.279 85.7741 118.335 83.9181 118.128 78.5732H139.636C139.429 83.9181 138.485 85.7741 138.342 86.0272C137.848 86.63 137.595 87.3994 137.641 88.1848C137.693 89.0694 138.118 89.8903 138.811 90.442L154.524 102.952C156.326 104.387 157.359 106.531 157.359 108.835V112.043ZM143.914 135.681C133.805 131.321 123.958 131.321 113.849 135.681L112.099 132.729C123.239 127.765 134.524 127.765 145.664 132.729L143.914 135.681Z" fill="#F0F0F0"/>
</svg>
