<svg width="171" height="211" viewBox="0 0 171 211" fill="none" xmlns="http://www.w3.org/2000/svg">
<path d="M147.081 0H44.9414C32.2761 0 22.0622 10.214 21.8579 22.8793C9.60112 23.4921 0 33.7061 0 45.9628V187.528C0 200.194 10.4182 210.612 23.0835 210.612H125.223C137.888 210.612 148.102 200.398 148.307 187.733C160.563 187.12 170.165 176.906 170.165 164.649V23.2878C170.369 10.4182 159.951 0 147.081 0ZM140.748 187.528C140.748 196.108 133.803 203.054 125.223 203.054H23.0835C14.5038 203.054 7.76261 196.108 7.76261 187.733V45.9628C7.76261 37.3831 14.7081 30.6419 23.0835 30.6419H105.612V66.1865C105.612 68.2292 107.247 70.0678 109.494 70.0678H140.748V187.528ZM113.375 62.3052V36.7703L136.05 62.3052H113.375ZM148.511 180.174V66.1865C148.511 65.7779 148.307 65.1651 148.307 64.7565C148.307 64.5522 148.102 64.3479 148.102 64.3479C147.898 64.1437 147.898 63.9394 147.694 63.7351L112.354 24.1049C112.149 23.9007 111.741 23.6964 111.332 23.4921C111.128 23.4921 111.128 23.2878 110.924 23.2878C110.515 23.0835 109.902 22.8793 109.289 22.8793H29.6205C29.8248 14.5038 36.566 7.76261 44.9414 7.76261H147.081C155.661 7.76261 162.402 14.7081 162.402 23.0835V164.853H162.606C162.606 172.82 156.274 179.561 148.511 180.174Z" fill="#F0F0F0"/>
<path d="M27.7822 70.0678H61.8968C63.9396 70.0678 65.7781 68.4336 65.7781 66.1865C65.7781 64.1437 64.1439 62.3052 61.8968 62.3052H27.7822C25.7394 62.3052 23.9009 63.9394 23.9009 66.1865C23.9009 68.4336 25.5351 70.0678 27.7822 70.0678Z" fill="#F0F0F0"/>
<path d="M61.6925 163.832H27.7822C25.7394 163.832 23.9009 165.466 23.9009 167.713C23.9009 169.756 25.5351 171.595 27.7822 171.595H61.8968C63.9396 171.595 65.7781 169.96 65.7781 167.713C65.5738 165.671 63.9396 163.832 61.6925 163.832Z" fill="#F0F0F0"/>
<path d="M23.9009 91.926C23.9009 93.9688 25.5351 95.8073 27.7822 95.8073H118.891C120.933 95.8073 122.772 94.1731 122.772 91.926C122.772 89.8832 120.933 88.0447 118.891 88.0447H27.7822C25.7394 88.0447 23.9009 89.6789 23.9009 91.926Z" fill="#F0F0F0"/>
<path d="M118.891 107.043H27.7822C25.7394 107.043 23.9009 108.677 23.9009 110.924C23.9009 112.967 25.5351 114.805 27.7822 114.805H118.891C120.933 114.805 122.772 113.171 122.772 110.924C122.772 108.881 120.933 107.043 118.891 107.043Z" fill="#F0F0F0"/>
<path d="M118.891 126.244H27.7822C25.7394 126.244 23.9009 127.879 23.9009 130.126C23.9009 132.168 25.5351 134.007 27.7822 134.007H118.891C120.933 134.007 122.772 132.373 122.772 130.126C122.772 127.879 120.933 126.244 118.891 126.244Z" fill="#F0F0F0"/>
<path d="M118.891 145.242H27.7822C25.7394 145.242 23.9009 146.877 23.9009 149.124C23.9009 151.167 25.5351 153.005 27.7822 153.005H118.891C120.933 153.005 122.772 151.371 122.772 149.124C122.772 146.877 120.933 145.242 118.891 145.242Z" fill="#F0F0F0"/>
</svg>
