<svg width="44" height="38" viewBox="0 0 44 38" fill="none" xmlns="http://www.w3.org/2000/svg">
<path d="M23.6088 3.25655V1.62832C23.6088 1.17896 23.244 0.814209 22.7947 0.814209H21.1665V4.07058H22.7947C23.244 4.07066 23.6088 3.70591 23.6088 3.25655Z" fill="white"/>
<path d="M10.3585 22.6399C10.536 21.8119 10.8112 21.0133 11.1669 20.253C10.3146 19.6888 9.41986 19.1385 8.53573 18.6077C5.93065 17.0446 3.27097 15.4466 1.62814 13.1809V16.6058C1.62814 16.6546 1.63388 16.7035 1.63388 16.7523C3.07887 18.15 5.03275 19.3281 6.9312 20.467C8.08318 21.1591 9.26524 21.8681 10.3585 22.6399Z" fill="white"/>
<path d="M9.91319 24.34C8.74007 23.4632 7.40256 22.6499 6.0935 21.8643C4.61834 20.9794 3.11145 20.0701 1.78452 19.0337C2.16714 22.3357 3.32805 25.474 5.20535 28.2541L9.06661 25.3584C9.43038 25.0841 9.71044 24.7332 9.91319 24.34Z" fill="white"/>
<path d="M9.37429 17.2122C10.2405 17.7316 11.1181 18.2729 11.968 18.8314C12.1797 18.5131 12.4027 18.2013 12.6477 17.905L12.7031 17.8447C12.712 17.8358 13.404 17.147 14.1774 16.1286C11.6554 15.5417 9.76905 13.2809 9.76905 10.5829C9.76905 8.98898 10.4285 7.54801 11.4868 6.51245H1.62823V8.14068C1.62823 12.5645 5.39095 14.822 9.37429 17.2122Z" fill="white"/>
<path d="M19.5382 4.07049V0.814114C19.5382 0.365573 19.1728 0 18.7241 0H0.814114C0.365573 0 0 0.365491 0 0.814114V4.07049C0 4.51903 0.365491 4.8846 0.814114 4.8846H18.7242C19.1728 4.8846 19.5382 4.51903 19.5382 4.07049Z" fill="white"/>
<path d="M30.071 27.6793H29.9839C25.7669 27.6793 21.7998 25.4332 19.631 21.8178C19.1401 20.9997 18.7583 20.1302 18.4742 19.2266L17.3972 20.0643C16.1174 21.0591 15.2871 22.4903 15.0575 24.0949C14.7612 26.1708 13.6743 28.0065 11.9965 29.2652L8.38028 31.9492C12.191 35.4401 17.2173 37.4485 22.4706 37.4485H22.7913C28.7684 37.4485 34.4647 34.8776 38.4195 30.3959L38.698 30.08L35.1664 26.5485C33.5765 27.2901 31.8425 27.6793 30.071 27.6793ZM26.7511 30.5864C22.8882 29.7446 19.4194 27.3853 17.2335 24.1159L18.5874 23.2115C20.5412 26.1341 23.6429 28.2426 27.0979 28.9956L26.7511 30.5864ZM29.9839 30.9356C29.4637 30.9356 28.937 30.9079 28.42 30.8542L28.5885 29.235C29.0501 29.283 29.5199 29.3075 29.9839 29.3075H30.071L30.1215 30.9357H29.9839V30.9356Z" fill="white"/>
<path d="M13.4464 23.8646C13.7345 21.8408 14.7831 20.0342 16.3974 18.7781L18.9667 16.7803C20.3645 15.6935 21.1664 14.0539 21.1664 12.2824C21.1664 9.06916 18.6101 6.51294 15.4677 6.51294C13.2233 6.51294 11.3972 8.33892 11.3972 10.5834C11.3972 12.8279 13.2232 14.6539 15.4677 14.6539C16.8142 14.6539 17.91 13.5582 17.91 12.2117C17.91 10.8651 16.8142 9.7694 15.4677 9.7694C15.0192 9.7694 14.6536 10.1349 14.6536 10.5835C14.6536 11.0321 15.0191 11.3976 15.4677 11.3976H16.2818V13.0259H15.4677C14.1212 13.0259 13.0255 11.9301 13.0255 10.5836C13.0255 9.23707 14.1212 8.14133 15.4677 8.14133C17.7121 8.14133 19.5382 9.96731 19.5382 12.2118C19.5382 14.2356 18.0484 15.9062 16.1109 16.2171C15.1308 17.6825 14.0772 18.7725 13.8787 18.9728C12.7861 20.3039 12.0803 21.915 11.8336 23.6352C11.6602 24.8498 11.0244 25.9244 10.0427 26.6603L6.16025 29.5724C6.50057 30.0006 6.85466 30.4158 7.22507 30.8131L11.0196 27.9637C12.349 26.9655 13.2111 25.5098 13.4464 23.8646Z" fill="white"/>
<path d="M43.1471 21.5525L36.6498 25.7296L39.7767 28.8566L43.2114 24.9636C43.1723 24.7894 43.1471 24.6095 43.1471 24.423V21.5525H43.1471Z" fill="white"/>
</svg>
