<svg width="57" height="65" viewBox="0 0 57 65" fill="none" xmlns="http://www.w3.org/2000/svg">
<path d="M35.7878 61.4307L35.7878 57.7494L54.0731 54.2195C55.8579 53.8748 57.0282 52.1387 56.6841 50.3599L54.8336 40.7719L54.8336 40.7712L54.8336 40.7705L47.671 3.66236C47.5046 2.79796 47.0106 2.04999 46.2817 1.55727C45.5528 1.06389 44.6752 0.884296 43.8115 1.05073L34.2241 2.90124C34.2234 2.90124 34.2234 2.90124 34.2228 2.90124C34.2221 2.90124 34.2215 2.90124 34.2215 2.9019L16.1164 6.39635C15.2519 6.56344 14.504 7.05682 14.0113 7.78571C13.6383 8.33698 13.4442 8.97311 13.4442 9.62438C13.4442 9.83423 13.4646 10.0461 13.5054 10.2566L13.5672 10.5763L4.28705 10.5763C2.47009 10.5763 0.991924 12.0544 0.991924 13.8714L0.991922 61.4301C0.991922 63.247 2.47009 64.7252 4.28705 64.7252L32.492 64.7252C34.309 64.7252 35.7878 63.247 35.7878 61.4307ZM38.1258 26.9217C38.9862 27.5039 39.5684 28.386 39.7658 29.4063C40.1736 31.5141 38.7895 33.556 36.6851 33.9632C36.3858 34.0204 36.0864 34.0316 35.7878 34.0198L35.7878 26.2605C36.614 26.225 37.4278 26.4493 38.1258 26.9217ZM25.4991 13.2076C25.5439 13.2083 25.5899 13.2116 25.634 13.2076L32.492 13.2076C32.8584 13.2076 33.1564 13.5056 33.1564 13.8714L33.1564 22.2286C28.4575 21.6333 24.7308 17.9059 24.1354 13.2076L25.4991 13.2076ZM21.4784 13.2076C22.0961 19.3611 27.003 24.2673 33.1564 24.8856L33.1564 50.4165C27.003 51.0348 22.0961 55.941 21.4784 62.0945L15.3 62.0945C14.6816 55.941 9.77542 51.0348 3.62197 50.4165L3.62197 24.8856C9.77542 24.2673 14.6816 19.3611 15.3 13.2076L21.4784 13.2076ZM32.492 62.0938L24.1354 62.0938C24.7308 57.3955 28.4575 53.6682 33.1564 53.0728L33.1564 61.4301C33.1564 61.7965 32.8578 62.0938 32.492 62.0938ZM35.7878 36.6584C36.2522 36.6696 36.718 36.6354 37.1824 36.5465C40.7124 35.8644 43.0306 32.437 42.3491 28.907C42.0189 27.1966 41.0426 25.7172 39.5993 24.7409C38.4593 23.9699 37.1357 23.593 35.7871 23.6285L35.7871 13.8714C35.7871 12.0544 34.3083 10.5763 32.4913 10.5763L27.2365 10.5763C27.472 9.36716 27.5325 8.12647 27.4214 6.89368L33.4932 5.72206C34.3524 8.60275 36.1621 11.0795 38.6856 12.786C41.2091 14.4924 44.1812 15.2516 47.1744 14.9766L52.0121 40.043C49.1314 40.9015 46.6547 42.7118 44.9482 45.2347C43.4694 47.4207 42.7017 49.9428 42.7017 52.5249C42.7017 52.9229 42.7221 53.3235 42.7589 53.7228L35.7858 55.0694L35.7858 36.6584L35.7878 36.6584ZM54.1001 50.8579C54.1718 51.2217 53.933 51.5657 53.5738 51.6355L45.3673 53.2195C45.2153 50.921 45.8166 48.6489 47.1283 46.7089C48.4401 44.7696 50.3254 43.3664 52.516 42.652L54.1001 50.8579ZM44.8075 3.73604C44.8923 3.79393 45.0423 3.9255 45.0877 4.16035L46.6718 12.3669C44.372 12.5189 42.1004 11.9176 40.1611 10.6059C38.2218 9.29414 36.818 7.40943 36.1036 5.21816L44.3101 3.63473C44.545 3.58934 44.7226 3.67881 44.8075 3.73604ZM16.0881 9.7566C16.0407 9.52373 16.1321 9.34479 16.1894 9.25993C16.2473 9.17507 16.3788 9.02508 16.6143 8.97969L24.8275 7.39429C24.8966 8.4646 24.7979 9.5382 24.54 10.5756L16.246 10.5756L16.0881 9.7566ZM4.28574 13.2076L12.643 13.2076C12.0476 17.9059 8.32028 21.6333 3.62197 22.2286L3.62197 13.8714C3.62197 13.5056 3.91932 13.2076 4.28574 13.2076ZM3.62197 61.4307L3.62197 53.0728C8.32028 53.6682 12.0476 57.3955 12.6429 62.0938L4.28573 62.0938C3.91932 62.0938 3.62197 61.7965 3.62197 61.4307Z" fill="#FF4B55"/>
<path d="M12.735 37.6525C12.735 41.2483 15.6604 44.1737 19.2562 44.1737C22.8519 44.1737 25.7773 41.2483 25.7773 37.6525C25.7773 34.0568 22.8519 31.1313 19.2562 31.1313C15.6604 31.1313 12.735 34.0568 12.735 37.6525ZM23.146 37.6525C23.146 39.7978 21.4014 41.5423 19.2562 41.5423C17.1109 41.5423 15.3663 39.7978 15.3663 37.6525C15.3663 35.5073 17.1109 33.7627 19.2562 33.7627C21.4014 33.7627 23.146 35.5073 23.146 37.6525Z" fill="#FF4B55"/>
<path d="M17.0737 24.2381C17.0737 24.9644 17.6631 25.5538 18.3894 25.5538C19.1157 25.5538 19.7051 24.9644 19.7051 24.2381L19.7051 21.8357C19.7051 21.1094 19.1157 20.52 18.3894 20.52C17.6631 20.52 17.0737 21.1094 17.0737 21.8357L17.0737 24.2381Z" fill="#FF4B55"/>
<path d="M17.0737 51.0647L17.0737 53.4678C17.0737 54.1941 17.6631 54.7835 18.3894 54.7835C19.1157 54.7835 19.7051 54.1941 19.7051 53.4678L19.7051 51.0647C19.7051 50.3384 19.1157 49.749 18.3894 49.749C17.6631 49.749 17.0737 50.3378 17.0737 51.0647Z" fill="#FF4B55"/>
<path d="M39.384 45.588L38.9288 43.2283C38.7913 42.5146 38.1012 42.0482 37.3874 42.1857C36.7579 42.3074 36.3204 42.858 36.3204 43.4763C36.3204 43.5586 36.3283 43.6428 36.3448 43.727L36.8 46.0867C36.9375 46.8004 37.6276 47.2668 38.3413 47.1293C39.0551 46.9905 39.5221 46.3037 39.384 45.588Z" fill="#FF4B55"/>
</svg>
