<svg width="52" height="52" viewBox="0 0 52 52" fill="none" xmlns="http://www.w3.org/2000/svg">
<path d="M34.6645 32.5C34.3395 32.5 34.008 32.4263 33.6982 32.2725L25.0315 27.9392C24.297 27.5708 23.8333 26.8212 23.8333 26V10.8333C23.8333 9.63733 24.804 8.66667 26 8.66667C27.196 8.66667 28.1667 9.63733 28.1667 10.8333V24.661L35.6352 28.3963C36.7055 28.9315 37.1388 30.2337 36.6037 31.304C36.2245 32.0623 35.4597 32.5 34.6645 32.5ZM26 52C11.6632 52 0 40.3368 0 26C0 11.6632 11.6632 0 26 0C40.3368 0 52 11.6632 52 26C52 40.3368 40.3368 52 26 52ZM26 4.33333C14.053 4.33333 4.33333 14.053 4.33333 26C4.33333 37.947 14.053 47.6667 26 47.6667C37.947 47.6667 47.6667 37.947 47.6667 26C47.6667 14.053 37.947 4.33333 26 4.33333Z" fill="#FF4B55"/>
</svg>
