<svg width="168" height="525" viewBox="0 0 168 525" fill="none" xmlns="http://www.w3.org/2000/svg">
<path d="M30.9203 417.648C25.3983 416.712 20.1263 416.379 15.0628 418.584C5.70666 422.618 0.518069 429.75 0.0388024 439.939C-0.48214 450.689 4.24802 458.612 13.8959 463.352C22.8352 467.74 33.6292 466.097 40.9432 459.298C46.0068 454.578 70.6786 429.459 75.7421 424.759C78.4719 422.222 79.2012 420.06 75.9505 417.274C74.9295 418.209 73.8668 419.145 72.8665 420.143C67.7405 425.238 42.7561 450.419 37.505 455.347C31.1912 461.273 22.3976 462.209 15.0419 458.092C7.95713 454.12 3.81043 445.844 5.18571 438.483C6.83189 429.687 13.4583 422.867 21.8975 422.118C25.5233 421.786 28.4197 420.933 30.9203 417.648ZM136.13 464.496C148.195 467.74 159.614 462.666 164.782 451.978C169.783 441.685 166.782 428.565 157.884 421.911C148.278 414.695 134.942 415.049 126.294 423.013C120.981 427.899 96.0589 453.039 91.0162 458.196C89.7868 459.443 87.2237 460.525 89.62 463.041C92.2456 465.765 93.3917 462.937 94.7878 461.668C100.643 456.303 125.523 430.062 131.941 425.321C138.422 420.538 146.715 420.725 153.488 425.217C159.822 429.417 163.302 437.631 161.76 444.804C160.031 452.852 153.883 459.256 146.09 460.233C142.277 460.691 138.839 461.169 136.13 464.496ZM60.1139 494.959C54.6336 510.034 70.1368 527.314 86.6194 524.632C96.6215 523.01 103.769 517.666 106.811 507.955C109.937 498.016 107.457 489.178 99.893 481.88C96.2673 478.366 73.2624 455.659 69.7409 452.041C66.9903 449.213 64.4898 446.114 59.6971 449.317C65.5942 455.139 90.8911 480.216 96.7465 486.163C101.206 490.676 103.769 496.082 102.81 502.57C101.352 512.551 93.2041 519.662 83.5146 519.683C74.1168 519.704 66.0526 512.758 64.3648 502.965C63.823 499.762 63.1562 496.789 60.1139 494.959ZM103.644 436.861C107.124 433.825 106.144 431.684 103.456 429.23C98.997 425.154 74.6377 400.659 70.3868 396.355C63.823 389.701 62.3018 381.03 66.3027 373.378C70.2618 365.809 78.5969 361.65 86.9528 363.085C95.3087 364.52 102.143 371.735 102.935 380.697C103.227 383.92 104.456 385.854 107.103 387.414C110.145 376.705 104.852 365.455 94.4961 360.215C84.4731 355.142 71.3246 358.011 64.3231 366.807C57.0716 375.915 57.0507 389.431 64.7815 397.894C70.6786 404.381 97.2883 430.478 103.644 436.861ZM54.8002 454.494C55.6129 455.347 56.5715 456.387 57.5717 457.405C62.6769 462.521 87.182 486.808 92.1414 492.048C95.6005 495.708 96.5173 500.157 94.5169 504.878C92.6207 509.39 89.0366 511.948 84.1606 512.28C79.2012 512.613 75.6171 510.097 73.0332 506.063C71.908 504.337 71.4913 502.362 71.4079 500.303C71.3246 498.016 69.1783 497.371 67.803 497.309C66.0734 497.226 66.7194 499.284 66.6569 500.428C66.4485 504.815 67.8447 508.662 70.8244 511.906C77.0549 518.726 88.1406 519.267 95.1003 513.091C101.956 507.019 102.664 495.853 96.3923 488.95C92.4123 484.583 68.7823 461.232 64.594 457.052C61.8225 454.266 59.3845 450.419 54.8002 454.494ZM70.3868 411.826C64.7815 417.544 39.172 443.287 33.4625 448.984C28.8573 453.579 24.3564 454.474 19.3553 452.061C14.646 449.774 12.0622 445.304 12.4581 440.105C12.854 435.011 16.5631 430.706 22.2726 429.375C25.0024 428.731 26.9194 427.462 28.3364 425.217C27.7113 424.302 26.8152 424.302 25.9609 424.219C18.3343 423.47 11.0411 427.899 8.37388 434.865C5.51912 442.33 8.10299 451.001 14.4376 455.243C21.1474 459.734 29.8784 459.402 35.6921 454.037C40.7765 449.338 65.4275 424.219 70.5119 419.498C73.3041 416.941 73.9501 414.778 70.3868 411.826ZM138.443 457.364C146.153 459.693 154.259 456.324 157.843 449.525C161.656 442.288 159.864 432.848 153.696 427.92C147.195 422.701 137.422 422.763 131.4 428.377C125.919 433.493 100.81 458.819 95.4754 464.101C94.1627 465.411 93.0583 466.534 94.9545 468.364C96.9549 470.277 97.9968 468.759 99.2054 467.553C104.123 462.687 128.878 437.818 133.879 433.035C138.339 428.772 143.215 428.045 148.132 430.582C152.592 432.869 155.092 437.423 154.613 442.309C154.092 447.632 150.549 451.77 144.84 453.018C142.11 453.642 140.089 454.806 138.443 457.364ZM113.229 428.585C107.395 422.825 81.4517 397.104 75.763 391.365C71.4079 386.956 70.4077 381.924 72.6582 377.183C74.7419 372.796 79.5763 369.801 84.1397 370.072C89.4742 370.384 93.7251 373.96 95.4129 379.886C96.1631 382.506 97.4133 384.482 99.9139 385.688C100.893 383.962 100.893 382.257 100.664 380.531C99.5805 372.567 94.4752 366.807 87.2445 365.435C79.5763 363.979 72.2831 367.14 68.6573 373.482C64.9691 379.928 66.0318 388.661 71.3662 394.317C75.117 398.31 99.2679 422.181 103.102 426.09C105.873 428.876 108.291 432.619 113.229 428.585ZM140.089 450.107C144.402 451.666 148.674 450.273 150.987 446.593C153.279 442.975 152.612 437.111 149.57 434.179C146.215 430.935 140.527 430.207 136.88 433.43C130.962 438.691 105.561 464.371 99.9139 469.944C99.0179 470.838 98.4969 471.816 99.643 472.918C100.685 473.895 101.81 474.456 103.081 473.354C104.602 472.023 106.061 470.63 107.52 469.237C111.395 465.577 135.15 441.956 139.068 438.338C141.464 436.133 144.048 435.905 146.215 438.587C148.32 441.207 147.132 443.515 144.861 445.283C143.048 446.717 141.068 447.861 140.089 450.107ZM74.5336 497.08C73.0958 502.881 74.7836 506.999 79.1387 509.078C83.4104 511.116 88.4115 510.014 91.2245 506.416C94.2043 502.632 93.996 497.122 90.4535 493.399C85.8901 488.617 61.8642 464.662 57.0924 460.088C55.9463 458.986 54.8836 456.366 52.6331 458.528C50.341 460.732 52.654 462.167 53.9251 463.519C58.3843 468.177 82.5352 491.778 86.5986 496.83C88.6407 499.388 88.8699 501.925 86.0985 503.921C83.5354 505.772 81.0141 504.961 79.4721 502.362C78.2427 500.324 76.5548 498.889 74.5336 497.08ZM92.3706 385.314C93.9126 379.741 92.3706 375.665 88.2448 373.523C84.2022 371.402 79.3262 372.193 76.3256 375.457C73.2625 378.784 72.5748 384.378 75.6171 387.788C80.8057 393.589 106.644 419.062 112.125 424.593C113.042 425.529 114.042 425.882 115.105 424.759C116.105 423.699 116.542 422.555 115.459 421.308C114.313 420.018 113.104 418.771 111.916 417.523C108.228 413.655 84.3898 389.722 80.7223 385.833C78.4927 383.463 78.1593 380.968 80.7849 378.68C83.077 376.684 86.0985 377.391 87.9739 380.593C89.0574 382.402 90.6619 383.504 92.3706 385.314ZM26.9819 432.183C21.585 430.997 17.8134 432.557 15.6879 436.653C13.5833 440.708 14.646 446.114 18.1051 448.838C22.0642 451.958 27.1486 451.937 31.1703 448.256C36.1714 443.682 60.8432 418.791 65.6359 414.009C66.9903 412.657 68.5115 411.16 66.511 409.268C64.4898 407.376 63.4271 409.559 62.281 410.62C57.4258 415.132 33.0457 440.105 27.8154 444.243C25.4191 446.135 22.9603 446.468 20.939 444.056C18.6885 441.394 19.6679 438.878 22.2935 437.069C24.1272 435.801 25.7108 434.428 26.9819 432.183Z" fill="url(#paint0_linear_340:13194)"/>
<path d="M30.9203 238.791C25.3983 237.855 20.1263 237.522 15.0628 239.726C5.70666 243.76 0.518069 250.893 0.0388024 261.082C-0.48214 271.832 4.24802 279.754 13.8959 284.495C22.8352 288.883 33.6292 287.24 40.9432 280.441C46.0068 275.72 70.6786 250.602 75.7421 245.902C78.4719 243.365 79.2012 241.203 75.9505 238.416C74.9295 239.352 73.8668 240.288 72.8665 241.286C67.7405 246.38 42.7561 271.562 37.505 276.49C31.1912 282.416 22.3976 283.352 15.0419 279.235C7.95713 275.263 3.81043 266.987 5.18571 259.626C6.83189 250.83 13.4583 244.01 21.8975 243.261C25.5233 242.929 28.4197 242.076 30.9203 238.791ZM136.13 285.639C148.195 288.883 159.614 283.809 164.782 273.121C169.783 262.828 166.782 249.707 157.884 243.053C148.278 235.838 134.942 236.192 126.294 244.156C120.981 249.042 96.0589 274.182 91.0162 279.339C89.7868 280.586 87.2237 281.667 89.62 284.184C92.2456 286.908 93.3917 284.08 94.7878 282.811C100.643 277.446 125.523 251.205 131.941 246.464C138.422 241.681 146.715 241.868 153.488 246.36C159.822 250.56 163.302 258.774 161.76 265.947C160.031 273.995 153.883 280.399 146.09 281.376C142.277 281.834 138.839 282.312 136.13 285.639ZM60.1139 316.102C54.6336 331.177 70.1368 348.457 86.6194 345.775C96.6215 344.153 103.769 338.809 106.811 329.098C109.937 319.159 107.457 310.321 99.893 303.023C96.2673 299.509 73.2624 276.802 69.7409 273.184C66.9903 270.356 64.4898 267.257 59.6971 270.46C65.5942 276.282 90.8911 301.359 96.7465 307.306C101.206 311.818 103.769 317.225 102.81 323.712C101.352 333.693 93.2041 340.805 83.5146 340.826C74.1168 340.847 66.0526 333.901 64.3648 324.108C63.823 320.905 63.1562 317.932 60.1139 316.102ZM103.644 258.004C107.124 254.968 106.144 252.827 103.456 250.373C98.997 246.297 74.6377 221.802 70.3868 217.498C63.823 210.844 62.3018 202.173 66.3027 194.521C70.2618 186.952 78.5969 182.793 86.9528 184.228C95.3087 185.663 102.143 192.878 102.935 201.84C103.227 205.063 104.456 206.997 107.103 208.557C110.145 197.848 104.852 186.598 94.4961 181.358C84.4731 176.285 71.3246 179.154 64.3231 187.95C57.0716 197.058 57.0507 210.574 64.7815 219.037C70.6786 225.524 97.2883 251.621 103.644 258.004ZM54.8002 275.637C55.6129 276.49 56.5715 277.53 57.5717 278.548C62.6769 283.664 87.182 307.951 92.1414 313.191C95.6005 316.851 96.5173 321.3 94.5169 326.021C92.6207 330.533 89.0366 333.09 84.1606 333.423C79.2012 333.756 75.6171 331.24 73.0332 327.206C71.908 325.48 71.4913 323.505 71.4079 321.446C71.3246 319.159 69.1783 318.514 67.803 318.452C66.0734 318.368 66.7194 320.427 66.6569 321.571C66.4485 325.958 67.8447 329.805 70.8244 333.049C77.0549 339.869 88.1406 340.41 95.1003 334.234C101.956 328.162 102.664 316.996 96.3923 310.093C92.4123 305.726 68.7823 282.374 64.594 278.195C61.8225 275.409 59.3845 271.562 54.8002 275.637ZM70.3868 232.969C64.7815 238.687 39.172 264.429 33.4625 270.127C28.8573 274.722 24.3564 275.617 19.3553 273.204C14.646 270.917 12.0622 266.446 12.4581 261.248C12.854 256.154 16.5631 251.849 22.2726 250.518C25.0024 249.874 26.9194 248.605 28.3364 246.36C27.7113 245.445 26.8152 245.445 25.9609 245.362C18.3343 244.613 11.0411 249.042 8.37388 256.008C5.51912 263.473 8.10299 272.144 14.4376 276.386C21.1474 280.877 29.8784 280.545 35.6921 275.18C40.7765 270.48 65.4275 245.362 70.5119 240.641C73.3041 238.084 73.9501 235.921 70.3868 232.969ZM138.443 278.507C146.153 280.836 154.259 277.467 157.843 270.668C161.656 263.431 159.864 253.991 153.696 249.063C147.195 243.844 137.422 243.906 131.4 249.52C125.919 254.636 100.81 279.962 95.4754 285.244C94.1627 286.554 93.0583 287.677 94.9545 289.507C96.9549 291.42 97.9968 289.902 99.2054 288.696C104.123 283.83 128.878 258.961 133.879 254.178C138.339 249.915 143.215 249.188 148.132 251.724C152.592 254.012 155.092 258.566 154.613 263.452C154.092 268.775 150.549 272.913 144.84 274.161C142.11 274.785 140.089 275.949 138.443 278.507ZM113.229 249.728C107.395 243.968 81.4517 218.247 75.763 212.507C71.4079 208.099 70.4077 203.067 72.6582 198.326C74.7419 193.939 79.5763 190.944 84.1397 191.215C89.4742 191.527 93.7251 195.103 95.4129 201.029C96.1631 203.649 97.4133 205.625 99.9139 206.831C100.893 205.105 100.893 203.4 100.664 201.674C99.5805 193.71 94.4752 187.95 87.2445 186.578C79.5763 185.122 72.2831 188.283 68.6573 194.625C64.9691 201.071 66.0318 209.804 71.3662 215.46C75.117 219.453 99.2679 243.324 103.102 247.233C105.873 250.019 108.291 253.762 113.229 249.728ZM140.089 271.25C144.402 272.809 148.674 271.416 150.987 267.736C153.279 264.118 152.612 258.254 149.57 255.322C146.215 252.078 140.527 251.35 136.88 254.573C130.962 259.834 105.561 285.514 99.9139 291.087C99.0179 291.981 98.4969 292.958 99.643 294.061C100.685 295.038 101.81 295.599 103.081 294.497C104.602 293.166 106.061 291.773 107.52 290.38C111.395 286.72 135.15 263.099 139.068 259.481C141.464 257.276 144.048 257.048 146.215 259.73C148.32 262.35 147.132 264.658 144.861 266.426C143.048 267.86 141.068 269.004 140.089 271.25ZM74.5336 318.223C73.0958 324.024 74.7836 328.142 79.1387 330.221C83.4104 332.259 88.4115 331.157 91.2245 327.559C94.2043 323.775 93.996 318.265 90.4535 314.542C85.8901 309.76 61.8642 285.805 57.0924 281.231C55.9463 280.129 54.8836 277.509 52.6331 279.671C50.341 281.875 52.654 283.31 53.9251 284.662C58.3843 289.32 82.5352 312.921 86.5986 317.973C88.6407 320.531 88.8699 323.068 86.0985 325.064C83.5354 326.915 81.0141 326.104 79.4721 323.505C78.2427 321.467 76.5548 320.032 74.5336 318.223ZM92.3706 206.456C93.9126 200.884 92.3706 196.808 88.2448 194.666C84.2022 192.545 79.3262 193.336 76.3256 196.6C73.2625 199.927 72.5748 205.521 75.6171 208.931C80.8057 214.732 106.644 240.205 112.125 245.736C113.042 246.672 114.042 247.025 115.105 245.902C116.105 244.842 116.542 243.698 115.459 242.45C114.313 241.161 113.104 239.914 111.916 238.666C108.228 234.798 84.3898 210.865 80.7223 206.976C78.4927 204.606 78.1593 202.111 80.7849 199.823C83.077 197.827 86.0985 198.534 87.9739 201.736C89.0574 203.545 90.6619 204.647 92.3706 206.456ZM26.9819 253.326C21.585 252.14 17.8134 253.7 15.6879 257.796C13.5833 261.851 14.646 267.257 18.1051 269.981C22.0642 273.1 27.1486 273.08 31.1703 269.399C36.1714 264.825 60.8432 239.934 65.6359 235.152C66.9903 233.8 68.5115 232.303 66.511 230.411C64.4898 228.519 63.4271 230.702 62.281 231.762C57.4258 236.275 33.0457 261.248 27.8154 265.386C25.4191 267.278 22.9603 267.611 20.939 265.199C18.6885 262.537 19.6679 260.021 22.2935 258.212C24.1272 256.944 25.7108 255.571 26.9819 253.326Z" fill="url(#paint1_linear_340:13194)"/>
<path d="M30.9203 59.9333C25.3983 58.9976 20.1263 58.6648 15.0628 60.869C5.70666 64.903 0.518069 72.0352 0.0388024 82.2242C-0.48214 92.9746 4.24802 100.897 13.8959 105.638C22.8352 110.025 33.6292 108.383 40.9432 101.583C46.0068 96.863 70.6786 71.7441 75.7421 67.0447C78.4719 64.5079 79.2012 62.3453 75.9505 59.559C74.9295 60.4947 73.8668 61.4304 72.8665 62.4285C67.7405 67.523 42.7561 92.7042 37.505 97.6324C31.1912 103.559 22.3976 104.494 15.0419 100.377C7.95713 96.4055 3.81043 88.1296 5.18571 80.7686C6.83189 71.9729 13.4583 65.1525 21.8975 64.4039C25.5233 64.0712 28.4197 63.2187 30.9203 59.9333ZM136.13 106.782C148.195 110.025 159.614 104.952 164.782 94.2638C169.783 83.9709 166.782 70.85 157.884 64.196C148.278 56.9806 134.942 57.334 126.294 65.2981C120.981 70.1846 96.0589 95.3242 91.0162 100.481C89.7868 101.729 87.2237 102.81 89.62 105.326C92.2456 108.05 93.3917 105.222 94.7878 103.954C100.643 98.5889 125.523 72.3471 131.941 67.6062C138.422 62.8236 146.715 63.0107 153.488 67.5022C159.822 71.7025 163.302 79.9161 161.76 87.0899C160.031 95.1371 153.883 101.542 146.09 102.519C142.277 102.976 138.839 103.455 136.13 106.782ZM60.1139 137.244C54.6336 152.32 70.1368 169.6 86.6194 166.917C96.6215 165.295 103.769 159.951 106.811 150.241C109.937 140.301 107.457 131.464 99.893 124.165C96.2673 120.651 73.2624 97.9443 69.7409 94.3261C66.9903 91.4982 64.4898 88.3999 59.6971 91.6022C65.5942 97.4244 90.8911 122.502 96.7465 128.449C101.206 132.961 103.769 138.367 102.81 144.855C101.352 154.836 93.2041 161.947 83.5146 161.968C74.1168 161.989 66.0526 155.044 64.3648 145.25C63.823 142.048 63.1562 139.074 60.1139 137.244ZM103.644 79.1467C107.124 76.1108 106.144 73.9691 103.456 71.5154C98.997 67.4398 74.6377 42.9448 70.3868 38.6405C63.823 31.9865 62.3018 23.3155 66.3027 15.6634C70.2618 8.09442 78.5969 3.93569 86.9528 5.37045C95.3087 6.80522 102.143 14.0206 102.935 22.9828C103.227 26.2058 104.456 28.1396 107.103 29.6991C110.145 18.9904 104.852 7.74094 94.4961 2.5009C84.4731 -2.57277 71.3246 0.296754 64.3231 9.09251C57.0716 18.2002 57.0507 31.7161 64.7815 40.1792C70.6786 46.6669 97.2883 72.763 103.644 79.1467ZM54.8002 96.7798C55.6129 97.6324 56.5715 98.672 57.5717 99.6909C62.6769 104.806 87.182 129.093 92.1414 134.333C95.6005 137.993 96.5173 142.443 94.5169 147.163C92.6207 151.675 89.0366 154.233 84.1606 154.566C79.2012 154.898 75.6171 152.382 73.0332 148.348C71.908 146.622 71.4913 144.647 71.4079 142.588C71.3246 140.301 69.1783 139.657 67.803 139.594C66.0734 139.511 66.7194 141.57 66.6569 142.713C66.4485 147.101 67.8447 150.948 70.8244 154.191C77.0549 161.012 88.1406 161.552 95.1003 155.377C101.956 149.305 102.664 138.139 96.3923 131.235C92.4123 126.868 68.7823 103.517 64.594 99.3374C61.8225 96.5511 59.3845 92.7042 54.8002 96.7798ZM70.3868 54.111C64.7815 59.8293 39.172 85.572 33.4625 91.2695C28.8573 95.8649 24.3564 96.759 19.3553 94.3469C14.646 92.0596 12.0622 87.589 12.4581 82.3905C12.854 77.2961 16.5631 72.9917 22.2726 71.6609C25.0024 71.0163 26.9194 69.7479 28.3364 67.5022C27.7113 66.5873 26.8152 66.5873 25.9609 66.5041C18.3343 65.7555 11.0411 70.1846 8.37388 77.1505C5.51912 84.6155 8.10299 93.2865 14.4376 97.5284C21.1474 102.02 29.8784 101.687 35.6921 96.3224C40.7765 91.623 65.4275 66.5041 70.5119 61.7839C73.3041 59.2263 73.9501 57.0637 70.3868 54.111ZM138.443 99.6494C146.153 101.978 154.259 98.6097 157.843 91.8101C161.656 84.5739 159.864 75.1335 153.696 70.2054C147.195 64.9861 137.422 65.0485 131.4 70.6629C125.919 75.7781 100.81 101.105 95.4754 106.387C94.1627 107.697 93.0583 108.819 94.9545 110.649C96.9549 112.562 97.9968 111.044 99.2054 109.838C104.123 104.973 128.878 80.1032 133.879 75.3207C138.339 71.0579 143.215 70.3302 148.132 72.867C152.592 75.1543 155.092 79.7081 154.613 84.5947C154.092 89.9179 150.549 94.0558 144.84 95.3035C142.11 95.9273 140.089 97.0917 138.443 99.6494ZM113.229 70.8708C107.395 65.1109 81.4517 39.389 75.763 33.65C71.4079 29.2417 70.4077 24.2096 72.6582 19.4686C74.7419 15.0811 79.5763 12.0868 84.1397 12.3571C89.4742 12.6691 93.7251 16.2456 95.4129 22.1718C96.1631 24.7918 97.4133 26.7672 99.9139 27.9733C100.893 26.2474 100.893 24.5423 100.664 22.8164C99.5805 14.8524 94.4752 9.09253 87.2445 7.72014C79.5763 6.26457 72.2831 9.42523 68.6573 15.7673C64.9691 22.2134 66.0318 30.9468 71.3662 36.6027C75.117 40.5951 99.2679 64.4663 103.102 68.3755C105.873 71.1619 108.291 74.9048 113.229 70.8708ZM140.089 92.3923C144.402 93.9519 148.674 92.5587 150.987 88.8782C153.279 85.2601 152.612 79.3962 149.57 76.4643C146.215 73.2205 140.527 72.4927 136.88 75.7157C130.962 80.9765 105.561 106.657 99.9139 112.23C99.0179 113.124 98.4969 114.101 99.643 115.203C100.685 116.18 101.81 116.742 103.081 115.64C104.602 114.309 106.061 112.916 107.52 111.523C111.395 107.863 135.15 84.2412 139.068 80.6231C141.464 78.4189 144.048 78.1902 146.215 80.8726C148.32 83.4926 147.132 85.8007 144.861 87.5682C143.048 89.0029 141.068 90.1466 140.089 92.3923ZM74.5336 139.365C73.0958 145.167 74.7836 149.284 79.1387 151.363C83.4104 153.401 88.4115 152.299 91.2245 148.702C94.2043 144.917 93.996 139.407 90.4535 135.685C85.8901 130.902 61.8642 106.948 57.0924 102.373C55.9463 101.271 54.8836 98.6512 52.6331 100.814C50.341 103.018 52.654 104.453 53.9251 105.804C58.3843 110.462 82.5352 134.063 86.5986 139.116C88.6407 141.674 88.8699 144.21 86.0985 146.207C83.5354 148.057 81.0141 147.246 79.4721 144.647C78.2427 142.609 76.5548 141.175 74.5336 139.365ZM92.3706 27.599C93.9126 22.0262 92.3706 17.9507 88.2448 15.8089C84.2022 13.6879 79.3262 14.4781 76.3256 17.7427C73.2625 21.0697 72.5748 26.6633 75.6171 30.0734C80.8057 35.8749 106.644 61.3472 112.125 66.8784C113.042 67.8141 114.042 68.1676 115.105 67.0447C116.105 65.9843 116.542 64.8406 115.459 63.593C114.313 62.3038 113.104 61.0561 111.916 59.8085C108.228 55.9409 84.3898 32.0073 80.7223 28.1188C78.4927 25.7483 78.1593 23.2531 80.7849 20.9658C83.077 18.9696 86.0985 19.6766 87.9739 22.8788C89.0574 24.6879 90.6619 25.7899 92.3706 27.599ZM26.9819 74.4681C21.585 73.2829 17.8134 74.8424 15.6879 78.9388C13.5833 82.9935 14.646 88.3999 18.1051 91.1239C22.0642 94.243 27.1486 94.2222 31.1703 90.5417C36.1714 85.9671 60.8432 61.0769 65.6359 56.2944C66.9903 54.9428 68.5115 53.4456 66.511 51.5534C64.4898 49.6611 63.4271 51.8445 62.281 52.905C57.4258 57.4172 33.0457 82.3905 27.8154 86.5285C25.4191 88.4207 22.9603 88.7534 20.939 86.3413C18.6885 83.6797 19.6679 81.1637 22.2935 79.3546C24.1272 78.0862 25.7108 76.7138 26.9819 74.4681Z" fill="url(#paint2_linear_340:13194)"/>
<defs>
<linearGradient id="paint0_linear_340:13194" x1="9.96887e-07" y1="441.312" x2="167.194" y2="441.312" gradientUnits="userSpaceOnUse">
<stop stop-color="#FF4B55"/>
<stop offset="1" stop-color="#FFAAAF"/>
</linearGradient>
<linearGradient id="paint1_linear_340:13194" x1="9.96887e-07" y1="262.455" x2="167.194" y2="262.455" gradientUnits="userSpaceOnUse">
<stop stop-color="#FF4B55"/>
<stop offset="1" stop-color="#FFAAAF"/>
</linearGradient>
<linearGradient id="paint2_linear_340:13194" x1="9.96887e-07" y1="83.5975" x2="167.194" y2="83.5975" gradientUnits="userSpaceOnUse">
<stop stop-color="#FF4B55"/>
<stop offset="1" stop-color="#FFAAAF"/>
</linearGradient>
</defs>
</svg>
