<svg width="208" height="208" viewBox="0 0 208 208" fill="none" xmlns="http://www.w3.org/2000/svg">
<path d="M207.652 126.832L207.683 126.822L173.533 52.3101L181.815 48.1883L178.716 41.983L170.642 46.0043L169.55 43.6227C168.752 41.8825 166.694 41.1185 164.954 41.9163C164.199 42.2625 163.594 42.8679 163.247 43.6227L162.273 45.7513C156.397 43.0221 149.998 41.606 143.519 41.6017H114.399V34.6684H121.332V27.7351H115.373L117.866 17.7616C119.779 10.1034 115.123 2.34375 107.465 0.429736C99.8063 -1.48385 92.0466 3.17271 90.1326 10.8309C89.5641 13.1059 89.5641 15.4862 90.1326 17.7612L92.6251 27.7347H86.666V34.668H93.5993V41.6013H64.4968C58.0116 41.6065 51.6053 43.026 45.725 45.7612L44.7509 43.6327C43.9531 41.8925 41.8952 41.1285 40.155 41.9263C39.4001 42.2725 38.7948 42.8778 38.4485 43.6327L37.3565 46.0143L29.2827 41.9757L26.1836 48.1879L34.4654 52.327L0.31551 126.822C0.104912 127.275 -0.0025539 127.768 4.6074e-05 128.268C0.0152126 141.663 10.871 152.519 24.2665 152.534H58.9329C72.3284 152.519 83.1842 141.663 83.1994 128.268C83.1907 127.77 83.0724 127.28 82.8527 126.832L48.6092 52.0397C53.5869 49.7292 59.0092 48.5332 64.4968 48.535H93.5993V175.365L81.7642 187.2H69.3328C59.7649 187.212 52.0109 194.966 51.9996 204.534C51.9996 206.448 53.5518 208 55.4663 208H152.532C154.447 208 155.999 206.448 155.999 204.534C155.987 194.966 148.233 187.212 138.666 187.2H126.234L114.399 175.365V48.535H143.519C149.007 48.5332 154.429 49.7292 159.406 52.0397L125.114 126.822C124.904 127.275 124.796 127.768 124.799 128.268C124.814 141.663 135.67 152.519 149.065 152.534H183.732C197.127 152.519 207.983 141.663 207.998 128.268C207.99 127.77 207.872 127.28 207.652 126.832ZM58.9329 145.601H24.2665C16.0324 145.592 8.93747 139.8 7.27999 131.734H75.9194C74.2624 139.8 67.167 145.592 58.9329 145.601ZM74.3317 124.801H8.86771L40.7122 55.3261C41.2938 55.4821 41.9056 55.4821 42.4872 55.3261L74.3317 124.801ZM98.1995 9.76409C100.899 6.56092 105.684 6.15316 108.888 8.8528C109.216 9.13013 109.522 9.43519 109.799 9.76409C111.201 11.5477 111.696 13.8807 111.14 16.0803L108.225 27.7351H99.7734L96.8579 16.0803C96.3019 13.8807 96.7977 11.5477 98.1995 9.76409ZM100.533 41.6017V34.6684H107.466V41.6017H100.533ZM107.466 48.535V173.334H100.533V48.535H107.466ZM138.666 194.134C143.072 194.139 146.998 196.915 148.473 201.067H59.5257C61.0003 196.915 64.9267 194.139 69.3328 194.134H138.666ZM116.431 187.2H91.5678L98.5011 180.267H109.497L116.431 187.2ZM165.504 55.3365C166.077 55.538 166.705 55.512 167.258 55.2637L199.131 124.801H133.667L165.504 55.3365ZM183.732 145.601H149.065C140.831 145.592 133.736 139.8 132.079 131.734H200.718C199.061 139.8 191.966 145.592 183.732 145.601Z" fill="#F0F0F0"/>
</svg>
