<svg width="85" height="104" viewBox="0 0 85 104" fill="none" xmlns="http://www.w3.org/2000/svg">
<path d="M68.0344 0H16.1677C7.27003 0 0 7.27003 0 16.1677V86.9148C0 95.8124 7.27003 103.082 16.1677 103.082H68.0344C76.9321 103.082 84.2021 95.8124 84.2021 86.9148V16.1677C84.2021 7.27003 76.9321 0 68.0344 0ZM76.7151 86.9148C76.7151 91.6891 72.8088 95.5954 68.0344 95.5954H16.1677C11.3933 95.5954 7.48704 91.6891 7.48704 86.9148V16.1677C7.48704 11.3933 11.3933 7.48704 16.1677 7.48704H68.0344C72.8088 7.48704 76.7151 11.3933 76.7151 16.1677V86.9148Z" fill="#FF4B55"/>
<path d="M59.7874 77.041H24.4139C22.3522 77.041 20.7246 78.6686 20.7246 80.7303C20.7246 82.7919 22.3522 84.4196 24.4139 84.4196H59.7874C61.8491 84.4196 63.4767 82.7919 63.4767 80.7303C63.4767 78.6686 61.8491 77.041 59.7874 77.041Z" fill="#FF4B55"/>
<path d="M42.1009 16.9272C27.9949 16.9272 16.6016 28.3206 16.6016 42.4266C16.6016 56.5326 27.9949 67.9259 42.1009 67.9259C56.2069 67.9259 67.6003 56.5326 67.6003 42.4266C67.6003 28.3206 56.2069 16.9272 42.1009 16.9272ZM42.1009 62.2835C38.4116 62.2835 34.8309 61.307 31.6842 59.3538L32.6607 54.7965C32.8777 53.6029 32.7692 52.3008 32.2267 51.2157L30.7076 47.852C30.4906 47.418 30.0565 47.0924 29.6225 46.9839L24.0886 46.1159C23.8716 46.1159 23.7631 46.0074 23.7631 45.7903C23.6546 45.6818 23.7631 45.4648 23.8716 45.3563L24.8482 44.1627C25.0652 43.9457 25.3907 43.7287 25.7162 43.8372L27.7779 44.1627C28.1034 44.1627 28.3204 44.1627 28.6459 44.1627L31.4671 43.5117C31.5756 43.5117 31.6842 43.4032 31.7927 43.4032L33.6373 42.5351C34.0713 42.3181 34.3969 41.8841 34.3969 41.45L35.1564 35.9161C35.2649 35.2651 34.8309 34.614 34.2883 34.397L33.3118 34.0715C32.8777 33.963 32.6607 33.5289 32.6607 33.2034C32.6607 32.6609 32.9862 32.2269 33.5288 32.2269L34.9394 32.1183C35.6989 32.0098 36.35 31.3588 36.2415 30.5992L35.916 25.4994C35.916 24.9568 35.4819 24.4143 34.9394 24.1973L34.7224 24.0888C37.001 23.2207 39.4967 22.6782 41.9924 22.6782C43.403 22.6782 44.8136 22.7867 46.2242 23.1122L46.3327 25.9334L45.8987 29.6227C45.8987 29.8397 45.8987 29.9482 46.0072 30.1652L46.4412 30.8163C46.5497 31.0333 46.7667 31.1418 46.9838 31.1418C47.2008 31.1418 47.4178 31.1418 47.6348 30.9248L48.7199 29.9482C48.8284 29.8397 48.9369 29.8397 49.0454 29.8397C49.1539 29.8397 49.2624 29.9482 49.2624 30.0567V30.2737C49.3709 30.5992 49.588 30.8163 50.022 30.8163H51.3241C51.4326 30.8163 51.5411 30.8163 51.6496 30.8163L52.7347 30.3822C52.8432 30.3822 52.9517 30.3822 53.0602 30.4907C53.1687 30.5992 53.1687 30.7077 53.1687 30.8163L52.5177 32.7694C52.5177 32.8779 52.4092 32.9864 52.1921 32.9864H50.7815H50.673L48.8284 32.4439C48.6114 32.4439 48.5029 32.4439 48.2859 32.4439L47.4178 32.7694C47.3093 32.7694 47.2008 32.7694 47.2008 32.7694L46.1157 32.2269C45.8987 32.1183 45.6817 32.1183 45.4647 32.3354L44.0541 33.3119C43.837 33.4204 43.7285 33.746 43.7285 33.963L43.9455 35.5906C43.9455 35.6991 43.9455 35.8076 43.7285 35.9161L42.6434 36.4587C42.4264 36.5672 42.2094 36.7842 42.2094 37.0012C42.2094 37.2182 42.2094 37.5437 42.4264 37.6522L43.186 38.4118C43.403 38.6288 43.62 38.6288 43.837 38.6288L45.2476 38.3033C45.3561 38.3033 45.3561 38.3033 45.4647 38.3033L46.1157 38.6288C46.2242 38.6288 46.4412 38.8458 47.0923 39.3884C47.3093 39.4969 47.4178 39.6054 47.6348 39.6054C47.8518 39.6054 48.0688 39.4969 48.1773 39.2799C48.1773 39.2799 48.2859 39.1714 48.3944 39.1714L49.4794 39.0628C49.588 39.0628 49.805 38.9543 49.9135 38.8458L50.022 38.7373C50.1305 38.6288 50.239 38.6288 50.3475 38.6288C50.456 38.6288 50.5645 38.7373 50.5645 38.8458L51.1071 40.3649L51.8666 41.3415C51.9751 41.45 51.9751 41.667 51.8666 41.7755L50.456 42.8606C50.3475 42.9691 50.1305 42.9691 50.022 42.8606L48.5029 41.5585L46.2242 40.582L43.2945 40.2564L40.7988 40.9075C40.0393 41.1245 39.3882 41.7755 39.1712 42.5351L38.6287 44.1627C38.4116 44.7053 38.5202 45.3563 38.7372 45.8988L39.6052 47.7435C39.9308 48.503 40.6903 49.0456 41.5584 49.1541L43.5115 49.3711H43.62L44.7051 50.0221C44.8136 50.0221 44.8136 50.1306 44.8136 50.2392L45.0306 52.3008C45.1391 53.0604 45.2476 53.7114 45.6817 54.3625L46.6582 56.2071C46.7667 56.3156 46.7667 56.4241 46.8753 56.5326L48.5029 57.7262C48.7199 57.8347 48.9369 57.9432 49.1539 57.8347C49.3709 57.8347 49.588 57.7262 49.6965 57.5092L50.239 56.7496L51.5411 53.4944L51.9751 49.1541L52.8432 47.3094C52.9517 47.2009 53.0602 47.0924 53.1687 47.0924L56.0984 47.418C56.3154 47.418 56.5325 47.418 56.7495 47.2009L57.292 46.6584C57.509 46.3329 57.6175 46.0074 57.4005 45.6818L56.2069 43.9457C56.0984 43.8372 56.0984 43.7287 56.2069 43.6202C56.2069 43.5117 56.3154 43.4032 56.4239 43.4032L56.9665 43.2947C57.075 43.2947 57.8345 43.1861 58.0516 43.1861L59.3537 43.4032C59.5707 43.4032 59.6792 43.6202 59.6792 43.7287L59.3537 47.418C59.3537 47.5265 59.3537 47.635 59.3537 47.7435L60.3302 50.2392C57.1835 57.6177 50.022 62.2835 42.1009 62.2835Z" fill="#FF4B55"/>
</svg>
