<svg width="216" height="216" viewBox="0 0 216 216" fill="none" xmlns="http://www.w3.org/2000/svg">
<path d="M97.1993 64.8007H72.0005V21.5997H75.5997C77.5887 21.5997 79.2004 19.988 79.2004 18.0005V3.60077C79.2004 1.61169 77.5887 0 75.5997 0H32.4003C30.4113 0 28.7996 1.61169 28.7996 3.60077V18.0005C28.7996 19.988 30.4113 21.5997 32.4003 21.5997H35.9994V64.8007H10.8007C4.83508 64.8007 0 69.6357 0 75.5997V190.8C0 196.765 4.83508 201.6 10.8007 201.6V212.401C10.8007 214.388 12.4124 216 14.3998 216H28.7996C30.7886 216 32.4003 214.388 32.4003 212.401V201.6H75.5997V212.401C75.5997 214.388 77.2114 216 79.2004 216H93.6002C95.5893 216 97.201 214.388 97.201 212.401V201.6C103.165 201.6 108 196.765 108 190.8V75.5997C108 69.6357 103.165 64.8007 97.1993 64.8007ZM35.9994 7.19989H72.0005V14.3998H35.9994V7.19989ZM43.1993 21.5997H64.8007V64.8007H43.1993V21.5997ZM25.2004 208.8H18.0005V201.6H25.2004V208.8ZM89.9994 208.8H82.7996V201.6H89.9994V208.8ZM100.8 190.8C100.8 192.789 99.1884 194.4 97.1993 194.4H10.8007C8.81158 194.4 7.19989 192.789 7.19989 190.8V75.5997C7.19989 73.6122 8.81158 72.0005 10.8007 72.0005H97.1993C99.1884 72.0005 100.8 73.6122 100.8 75.5997V190.8Z" fill="#F0F0F0"/>
<path d="M50.3994 86.4001H57.601V180H50.3994V86.4001Z" fill="#F0F0F0"/>
<path d="M25.2007 86.4001H32.4006V180H25.2007V86.4001Z" fill="#F0F0F0"/>
<path d="M75.5996 86.4001H82.7995V180H75.5996V86.4001Z" fill="#F0F0F0"/>
<path d="M205.199 144H190.799V140.401C190.799 134.435 185.964 129.6 180 129.6H151.199C145.235 129.6 140.4 134.435 140.4 140.401V144H126C120.035 144 115.2 148.835 115.2 154.8V205.2C115.2 211.165 120.035 216 126 216H205.199C211.165 216 216 211.165 216 205.2V154.8C216 148.835 211.165 144 205.199 144ZM147.6 140.401C147.6 138.411 149.212 136.8 151.201 136.8H180C181.988 136.8 183.599 138.411 183.599 140.401V144H147.6V140.401ZM208.8 205.2C208.8 207.189 207.188 208.8 205.199 208.8H126C124.011 208.8 122.4 207.189 122.4 205.2V154.8C122.4 152.811 124.011 151.2 126 151.2H205.199C207.188 151.2 208.8 152.811 208.8 154.8V205.2Z" fill="#F0F0F0"/>
<path d="M162 165.601H169.2V194.4H162V165.601Z" fill="#F0F0F0"/>
<path d="M140.4 165.601H147.6V194.4H140.4V165.601Z" fill="#F0F0F0"/>
<path d="M183.6 165.601H190.799V194.4H183.6V165.601Z" fill="#F0F0F0"/>
</svg>
