<svg width="88" height="28" viewBox="0 0 88 28" fill="none" xmlns="http://www.w3.org/2000/svg">
<path d="M17.963 5.17821C18.1197 4.25344 18.1755 3.37055 17.8063 2.52256C17.1308 0.955692 15.9363 0.0867608 14.23 0.00649806C12.4296 -0.080744 11.1029 0.711414 10.3089 2.32714C9.57411 3.82421 9.84921 5.63187 10.9879 6.85675C11.7784 7.70474 15.9851 11.8365 16.7721 12.6845C17.1969 13.1417 17.5591 13.2638 18.0257 12.7194C17.869 12.5484 17.7123 12.3704 17.5452 12.2029C16.692 11.3445 12.4749 7.16035 11.6496 6.28095C10.6571 5.22357 10.5004 3.75093 11.1899 2.51907C11.855 1.33258 13.241 0.638131 14.4737 0.86845C15.9468 1.14413 17.089 2.25385 17.2143 3.66718C17.2701 4.27438 17.4128 4.75945 17.963 5.17821ZM10.1174 22.7976C9.57411 24.8181 10.4238 26.7305 12.2137 27.5959C13.9375 28.4335 16.1348 27.9309 17.2492 26.4408C18.4575 24.8321 18.3983 22.5987 17.0646 21.1505C16.2462 20.2606 12.0361 16.087 11.1725 15.2425C10.9636 15.0366 10.7825 14.6073 10.3611 15.0086C9.90493 15.4483 10.3785 15.6403 10.591 15.8741C11.4894 16.8547 15.8841 21.0214 16.6781 22.0962C17.479 23.1815 17.4477 24.5704 16.6955 25.7045C15.992 26.7654 14.6165 27.3482 13.4151 27.0899C12.0675 26.8003 10.9949 25.7708 10.8312 24.4657C10.7546 23.8271 10.6745 23.2513 10.1174 22.7976ZM5.01575 10.0673C2.49106 9.14947 -0.402753 11.7458 0.046467 14.5061C0.318088 16.1812 1.21305 17.3781 2.83929 17.8876C4.50384 18.4111 5.98383 17.9958 7.20613 16.7291C7.79464 16.1219 11.5973 12.2692 12.2033 11.6795C12.6769 11.2188 13.1957 10.8001 12.6595 9.99746C11.6844 10.985 7.48471 15.2215 6.48877 16.2021C5.7331 16.9489 4.8277 17.3781 3.74121 17.2176C2.0697 16.9733 0.878743 15.6089 0.875261 13.9862C0.871779 12.4123 2.03488 11.0618 3.67505 10.7791C4.21133 10.6884 4.7093 10.5767 5.01575 10.0673ZM14.7454 17.3572C15.2538 17.94 15.6125 17.776 16.0234 17.3258C16.7059 16.579 20.8081 12.4996 21.5289 11.7877C22.6433 10.6884 24.0954 10.4337 25.3769 11.1037C26.6445 11.7667 27.3409 13.1626 27.1007 14.562C26.8604 15.9613 25.652 17.1059 24.1511 17.2386C23.6114 17.2874 23.2875 17.4933 23.0263 17.9365C24.8197 18.446 26.7037 17.5596 27.5812 15.8252C28.4309 14.1467 27.9503 11.9447 26.4773 10.7722C24.9521 9.55776 22.6885 9.55427 21.2712 10.8489C20.1848 11.8365 15.8144 16.2928 14.7454 17.3572ZM11.7924 9.17738C11.6496 9.31348 11.4755 9.47401 11.3048 9.64151C10.4482 10.4965 6.38082 14.6004 5.50327 15.4309C4.89038 16.0102 4.14516 16.1637 3.35468 15.8287C2.59901 15.5112 2.17069 14.9109 2.11497 14.0943C2.05925 13.2638 2.48061 12.6636 3.15618 12.2309C3.44522 12.0424 3.77604 11.9726 4.12079 11.9587C4.50384 11.9447 4.6118 11.5853 4.62224 11.3549C4.63617 11.0653 4.29142 11.1735 4.0999 11.163C3.36512 11.1281 2.72089 11.3619 2.17765 11.861C1.03545 12.9044 0.944907 14.7609 1.97916 15.9264C2.996 17.0745 4.86601 17.1932 6.02214 16.1428C6.75343 15.4763 10.6641 11.519 11.364 10.8175C11.8307 10.3534 12.4749 9.94511 11.7924 9.17738ZM18.9381 11.7877C17.9804 10.8489 13.6693 6.56012 12.7152 5.60395C11.9456 4.83273 11.7958 4.07896 12.1998 3.24143C12.5828 2.45277 13.3315 2.02005 14.2021 2.08635C15.0553 2.15265 15.7761 2.77382 15.999 3.72999C16.107 4.18714 16.3194 4.50819 16.6955 4.74549C16.8487 4.6408 16.8487 4.49074 16.8626 4.34766C16.988 3.07044 16.2462 1.84905 15.0797 1.40237C13.8295 0.924285 12.3774 1.35701 11.667 2.41787C10.9148 3.54155 10.9705 5.00372 11.869 5.97735C12.656 6.82883 16.8626 10.9571 17.6531 11.8086C18.0814 12.2762 18.4436 12.3844 18.9381 11.7877ZM11.3118 23.185C10.9218 24.4762 11.4859 25.8336 12.6246 26.4339C13.8365 27.0725 15.4175 26.7724 16.2428 25.7394C17.1168 24.6506 17.1064 23.014 16.1662 22.0055C15.3095 21.0877 11.068 16.8826 10.1835 15.9892C9.96413 15.7694 9.77609 15.5844 9.46964 15.902C9.14927 16.237 9.40348 16.4115 9.60545 16.6139C10.4203 17.4375 14.5852 21.5832 15.3861 22.4207C16.1 23.1675 16.2219 23.9841 15.797 24.8077C15.414 25.5545 14.6513 25.9732 13.833 25.893C12.9415 25.8057 12.2485 25.2125 12.0396 24.2563C11.9351 23.7992 11.7401 23.4607 11.3118 23.185ZM16.1313 18.9625C17.0959 17.9853 21.4036 13.6407 22.3647 12.688C23.1029 11.9587 23.9457 11.7912 24.7396 12.168C25.4744 12.517 25.9759 13.3266 25.9306 14.0909C25.8784 14.9842 25.2794 15.6961 24.2869 15.9788C23.8482 16.1044 23.5173 16.3138 23.3154 16.7325C23.6044 16.8966 23.89 16.8966 24.179 16.8582C25.5127 16.6767 26.4773 15.8217 26.7072 14.6108C26.9509 13.3266 26.4216 12.1052 25.3595 11.498C24.28 10.8804 22.8174 11.0583 21.8702 11.9517C21.2016 12.5798 17.2039 16.6244 16.5492 17.2665C16.0826 17.7306 15.4558 18.1354 16.1313 18.9625ZM12.5271 23.4607C12.2659 24.183 12.4993 24.8984 13.1156 25.2858C13.7216 25.6696 14.7036 25.558 15.1946 25.0485C15.7378 24.4866 15.8597 23.5339 15.3199 22.9232C14.4389 21.9322 10.1383 17.6783 9.20499 16.7326C9.05525 16.5825 8.89158 16.4953 8.70702 16.6872C8.54335 16.8617 8.44932 17.0501 8.63389 17.263C8.85675 17.5177 9.09007 17.762 9.32339 18.0063C9.93628 18.6554 13.8922 22.6336 14.4981 23.2897C14.8672 23.691 14.9056 24.1237 14.4563 24.4866C14.0176 24.8391 13.631 24.6402 13.335 24.2598C13.0947 23.9562 12.9032 23.6247 12.5271 23.4607ZM4.66055 12.4821C3.68898 12.2413 2.99948 12.524 2.65125 13.2533C2.30998 13.9687 2.49454 14.8062 3.09698 15.2774C3.73077 15.7764 4.65358 15.7415 5.27692 15.1482C6.07786 14.384 10.0895 10.3604 10.8556 9.56125C11.0402 9.36932 11.4789 9.19134 11.1168 8.81446C10.7477 8.43059 10.5074 8.81795 10.281 9.03082C9.50098 9.77761 5.54854 13.8222 4.70234 14.5026C4.27401 14.8446 3.84917 14.883 3.51486 14.4189C3.20494 13.9897 3.34075 13.5674 3.77604 13.3092C4.11731 13.1033 4.35759 12.8206 4.66055 12.4821ZM23.378 15.4693C24.3113 15.7275 24.9938 15.4693 25.3525 14.7783C25.7077 14.1013 25.5754 13.2847 25.0287 12.7822C24.4715 12.2692 23.5348 12.1541 22.9637 12.6636C21.9921 13.5325 17.7262 17.8597 16.7999 18.7775C16.6432 18.931 16.584 19.0986 16.7721 19.2765C16.9497 19.444 17.1412 19.5173 17.3501 19.3358C17.566 19.1439 17.775 18.9415 17.9839 18.7426C18.6316 18.1249 22.6398 14.1327 23.291 13.5185C23.688 13.1452 24.1059 13.0893 24.4889 13.529C24.8232 13.9129 24.7048 14.4189 24.1685 14.733C23.8656 14.9144 23.681 15.1831 23.378 15.4693ZM15.5289 4.51866C15.7274 3.61483 15.4662 2.9832 14.7802 2.62725C14.1011 2.27479 13.1957 2.45277 12.7395 3.03205C12.2172 3.69509 12.2207 4.54658 12.837 5.22008C13.6032 6.05761 17.7715 10.1894 18.5724 10.992C18.7988 11.2189 19.0495 11.4736 19.3664 11.1386C19.6833 10.8001 19.3177 10.6221 19.1401 10.4302C18.3844 9.61709 14.2021 5.53416 13.5091 4.65825C13.1922 4.25693 13.1365 3.84515 13.5405 3.50665C13.9862 3.12977 14.4076 3.29378 14.7105 3.73348C14.923 4.04057 15.1528 4.30579 15.5289 4.51866Z" fill="#ACACAC"/>
<path d="M47.963 5.17821C48.1197 4.25344 48.1755 3.37055 47.8063 2.52256C47.1308 0.955692 45.9363 0.0867608 44.23 0.00649806C42.4296 -0.080744 41.1029 0.711414 40.3089 2.32714C39.5741 3.82421 39.8492 5.63187 40.9879 6.85675C41.7784 7.70474 45.9851 11.8365 46.7721 12.6845C47.1969 13.1417 47.5591 13.2638 48.0257 12.7194C47.869 12.5484 47.7123 12.3704 47.5452 12.2029C46.692 11.3445 42.4749 7.16035 41.6496 6.28095C40.6571 5.22357 40.5004 3.75093 41.1899 2.51907C41.855 1.33258 43.241 0.638131 44.4737 0.86845C45.9468 1.14413 47.089 2.25385 47.2143 3.66718C47.2701 4.27438 47.4128 4.75945 47.963 5.17821ZM40.1174 22.7976C39.5741 24.8181 40.4238 26.7305 42.2137 27.5959C43.9375 28.4335 46.1348 27.9309 47.2492 26.4408C48.4575 24.8321 48.3983 22.5987 47.0646 21.1505C46.2462 20.2606 42.0361 16.087 41.1725 15.2425C40.9636 15.0366 40.7825 14.6073 40.3611 15.0086C39.9049 15.4483 40.3785 15.6403 40.591 15.8741C41.4894 16.8547 45.8841 21.0214 46.6781 22.0962C47.479 23.1815 47.4477 24.5704 46.6955 25.7045C45.992 26.7654 44.6165 27.3482 43.4151 27.0899C42.0675 26.8003 40.9949 25.7708 40.8312 24.4657C40.7546 23.8271 40.6745 23.2513 40.1174 22.7976ZM35.0157 10.0673C32.4911 9.14947 29.5972 11.7458 30.0465 14.5061C30.3181 16.1812 31.213 17.3781 32.8393 17.8876C34.5038 18.4111 35.9838 17.9958 37.2061 16.7291C37.7946 16.1219 41.5973 12.2692 42.2033 11.6795C42.6769 11.2188 43.1957 10.8001 42.6595 9.99746C41.6844 10.985 37.4847 15.2215 36.4888 16.2021C35.7331 16.9489 34.8277 17.3781 33.7412 17.2176C32.0697 16.9733 30.8787 15.6089 30.8753 13.9862C30.8718 12.4123 32.0349 11.0618 33.6751 10.7791C34.2113 10.6884 34.7093 10.5767 35.0157 10.0673ZM44.7454 17.3572C45.2538 17.94 45.6125 17.776 46.0234 17.3258C46.7059 16.579 50.8081 12.4996 51.5289 11.7877C52.6433 10.6884 54.0954 10.4337 55.3769 11.1037C56.6445 11.7667 57.3409 13.1626 57.1007 14.562C56.8604 15.9613 55.652 17.1059 54.1511 17.2386C53.6114 17.2874 53.2875 17.4933 53.0263 17.9365C54.8197 18.446 56.7037 17.5596 57.5812 15.8252C58.4309 14.1467 57.9503 11.9447 56.4773 10.7722C54.9521 9.55776 52.6885 9.55427 51.2712 10.8489C50.1848 11.8365 45.8144 16.2928 44.7454 17.3572ZM41.7924 9.17738C41.6496 9.31348 41.4755 9.47401 41.3048 9.64151C40.4482 10.4965 36.3808 14.6004 35.5033 15.4309C34.8904 16.0102 34.1452 16.1637 33.3547 15.8287C32.599 15.5112 32.1707 14.9109 32.115 14.0943C32.0593 13.2638 32.4806 12.6636 33.1562 12.2309C33.4452 12.0424 33.776 11.9726 34.1208 11.9587C34.5038 11.9447 34.6118 11.5853 34.6222 11.3549C34.6362 11.0653 34.2914 11.1735 34.0999 11.163C33.3651 11.1281 32.7209 11.3619 32.1777 11.861C31.0354 12.9044 30.9449 14.7609 31.9792 15.9264C32.996 17.0745 34.866 17.1932 36.0221 16.1428C36.7534 15.4763 40.6641 11.519 41.364 10.8175C41.8307 10.3534 42.4749 9.94511 41.7924 9.17738ZM48.9381 11.7877C47.9804 10.8489 43.6693 6.56012 42.7152 5.60395C41.9456 4.83273 41.7958 4.07896 42.1998 3.24143C42.5828 2.45277 43.3315 2.02005 44.2021 2.08635C45.0553 2.15265 45.7761 2.77382 45.999 3.72999C46.107 4.18714 46.3194 4.50819 46.6955 4.74549C46.8487 4.6408 46.8487 4.49074 46.8626 4.34766C46.988 3.07044 46.2462 1.84905 45.0797 1.40237C43.8295 0.924285 42.3774 1.35701 41.667 2.41787C40.9148 3.54155 40.9705 5.00372 41.869 5.97735C42.656 6.82883 46.8626 10.9571 47.6531 11.8086C48.0814 12.2762 48.4436 12.3844 48.9381 11.7877ZM41.3118 23.185C40.9218 24.4762 41.4859 25.8336 42.6246 26.4339C43.8365 27.0725 45.4175 26.7724 46.2428 25.7394C47.1168 24.6506 47.1064 23.014 46.1662 22.0055C45.3095 21.0877 41.068 16.8826 40.1835 15.9892C39.9641 15.7694 39.7761 15.5844 39.4696 15.902C39.1493 16.237 39.4035 16.4115 39.6055 16.6139C40.4203 17.4375 44.5852 21.5832 45.3861 22.4207C46.1 23.1675 46.2219 23.9841 45.797 24.8077C45.414 25.5545 44.6513 25.9732 43.833 25.893C42.9415 25.8057 42.2485 25.2125 42.0396 24.2563C41.9351 23.7992 41.7401 23.4607 41.3118 23.185ZM46.1313 18.9625C47.0959 17.9853 51.4036 13.6407 52.3647 12.688C53.1029 11.9587 53.9457 11.7912 54.7396 12.168C55.4744 12.517 55.9759 13.3266 55.9306 14.0909C55.8784 14.9842 55.2794 15.6961 54.2869 15.9788C53.8482 16.1044 53.5173 16.3138 53.3154 16.7325C53.6044 16.8966 53.89 16.8966 54.179 16.8582C55.5127 16.6767 56.4773 15.8217 56.7072 14.6108C56.9509 13.3266 56.4216 12.1052 55.3595 11.498C54.28 10.8804 52.8174 11.0583 51.8702 11.9517C51.2016 12.5798 47.2039 16.6244 46.5492 17.2665C46.0826 17.7306 45.4558 18.1354 46.1313 18.9625ZM42.5271 23.4607C42.2659 24.183 42.4993 24.8984 43.1156 25.2858C43.7216 25.6696 44.7036 25.558 45.1946 25.0485C45.7378 24.4866 45.8597 23.5339 45.3199 22.9232C44.4389 21.9322 40.1383 17.6783 39.205 16.7326C39.0552 16.5825 38.8916 16.4953 38.707 16.6872C38.5433 16.8617 38.4493 17.0501 38.6339 17.263C38.8568 17.5177 39.0901 17.762 39.3234 18.0063C39.9363 18.6554 43.8922 22.6336 44.4981 23.2897C44.8672 23.691 44.9056 24.1237 44.4563 24.4866C44.0176 24.8391 43.631 24.6402 43.335 24.2598C43.0947 23.9562 42.9032 23.6247 42.5271 23.4607ZM34.6605 12.4821C33.689 12.2413 32.9995 12.524 32.6512 13.2533C32.31 13.9687 32.4945 14.8062 33.097 15.2774C33.7308 15.7764 34.6536 15.7415 35.2769 15.1482C36.0779 14.384 40.0895 10.3604 40.8556 9.56125C41.0402 9.36932 41.4789 9.19134 41.1168 8.81446C40.7477 8.43059 40.5074 8.81795 40.281 9.03082C39.501 9.77761 35.5485 13.8222 34.7023 14.5026C34.274 14.8446 33.8492 14.883 33.5149 14.4189C33.2049 13.9897 33.3407 13.5674 33.776 13.3092C34.1173 13.1033 34.3576 12.8206 34.6605 12.4821ZM53.378 15.4693C54.3113 15.7275 54.9938 15.4693 55.3525 14.7783C55.7077 14.1013 55.5754 13.2847 55.0287 12.7822C54.4715 12.2692 53.5348 12.1541 52.9637 12.6636C51.9921 13.5325 47.7262 17.8597 46.7999 18.7775C46.6432 18.931 46.584 19.0986 46.7721 19.2765C46.9497 19.444 47.1412 19.5173 47.3501 19.3358C47.566 19.1439 47.775 18.9415 47.9839 18.7426C48.6316 18.1249 52.6398 14.1327 53.291 13.5185C53.688 13.1452 54.1059 13.0893 54.4889 13.529C54.8232 13.9129 54.7048 14.4189 54.1685 14.733C53.8656 14.9144 53.681 15.1831 53.378 15.4693ZM45.5289 4.51866C45.7274 3.61483 45.4662 2.9832 44.7802 2.62725C44.1011 2.27479 43.1957 2.45277 42.7395 3.03205C42.2172 3.69509 42.2207 4.54658 42.837 5.22008C43.6032 6.05761 47.7715 10.1894 48.5724 10.992C48.7988 11.2189 49.0495 11.4736 49.3664 11.1386C49.6833 10.8001 49.3177 10.6221 49.1401 10.4302C48.3844 9.61709 44.2021 5.53416 43.5091 4.65825C43.1922 4.25693 43.1365 3.84515 43.5405 3.50665C43.9862 3.12977 44.4076 3.29378 44.7105 3.73348C44.923 4.04057 45.1528 4.30579 45.5289 4.51866Z" fill="#ACACAC"/>
<path d="M77.963 5.17821C78.1197 4.25344 78.1755 3.37055 77.8063 2.52256C77.1308 0.955692 75.9363 0.0867608 74.23 0.00649806C72.4296 -0.080744 71.1029 0.711414 70.3089 2.32714C69.5741 3.82421 69.8492 5.63187 70.9879 6.85675C71.7784 7.70474 75.9851 11.8365 76.7721 12.6845C77.1969 13.1417 77.5591 13.2638 78.0257 12.7194C77.869 12.5484 77.7123 12.3704 77.5452 12.2029C76.692 11.3445 72.4749 7.16035 71.6496 6.28095C70.6571 5.22357 70.5004 3.75093 71.1899 2.51907C71.855 1.33258 73.241 0.638131 74.4737 0.86845C75.9468 1.14413 77.089 2.25385 77.2143 3.66718C77.2701 4.27438 77.4128 4.75945 77.963 5.17821ZM70.1174 22.7976C69.5741 24.8181 70.4238 26.7305 72.2137 27.5959C73.9375 28.4335 76.1348 27.9309 77.2492 26.4408C78.4575 24.8321 78.3983 22.5987 77.0646 21.1505C76.2462 20.2606 72.0361 16.087 71.1725 15.2425C70.9636 15.0366 70.7825 14.6073 70.3611 15.0086C69.9049 15.4483 70.3785 15.6403 70.591 15.8741C71.4894 16.8547 75.8841 21.0214 76.6781 22.0962C77.479 23.1815 77.4477 24.5704 76.6955 25.7045C75.992 26.7654 74.6165 27.3482 73.4151 27.0899C72.0675 26.8003 70.9949 25.7708 70.8312 24.4657C70.7546 23.8271 70.6745 23.2513 70.1174 22.7976ZM65.0157 10.0673C62.4911 9.14947 59.5972 11.7458 60.0465 14.5061C60.3181 16.1812 61.213 17.3781 62.8393 17.8876C64.5038 18.4111 65.9838 17.9958 67.2061 16.7291C67.7946 16.1219 71.5973 12.2692 72.2033 11.6795C72.6769 11.2188 73.1957 10.8001 72.6595 9.99746C71.6844 10.985 67.4847 15.2215 66.4888 16.2021C65.7331 16.9489 64.8277 17.3781 63.7412 17.2176C62.0697 16.9733 60.8787 15.6089 60.8753 13.9862C60.8718 12.4123 62.0349 11.0618 63.6751 10.7791C64.2113 10.6884 64.7093 10.5767 65.0157 10.0673ZM74.7454 17.3572C75.2538 17.94 75.6125 17.776 76.0234 17.3258C76.7059 16.579 80.8081 12.4996 81.5289 11.7877C82.6433 10.6884 84.0954 10.4337 85.3769 11.1037C86.6445 11.7667 87.3409 13.1626 87.1007 14.562C86.8604 15.9613 85.652 17.1059 84.1511 17.2386C83.6114 17.2874 83.2875 17.4933 83.0263 17.9365C84.8197 18.446 86.7037 17.5596 87.5812 15.8252C88.4309 14.1467 87.9503 11.9447 86.4773 10.7722C84.9521 9.55776 82.6885 9.55427 81.2712 10.8489C80.1848 11.8365 75.8144 16.2928 74.7454 17.3572ZM71.7924 9.17738C71.6496 9.31348 71.4755 9.47401 71.3048 9.64151C70.4482 10.4965 66.3808 14.6004 65.5033 15.4309C64.8904 16.0102 64.1452 16.1637 63.3547 15.8287C62.599 15.5112 62.1707 14.9109 62.115 14.0943C62.0593 13.2638 62.4806 12.6636 63.1562 12.2309C63.4452 12.0424 63.776 11.9726 64.1208 11.9587C64.5038 11.9447 64.6118 11.5853 64.6222 11.3549C64.6362 11.0653 64.2914 11.1735 64.0999 11.163C63.3651 11.1281 62.7209 11.3619 62.1777 11.861C61.0354 12.9044 60.9449 14.7609 61.9792 15.9264C62.996 17.0745 64.866 17.1932 66.0221 16.1428C66.7534 15.4763 70.6641 11.519 71.364 10.8175C71.8307 10.3534 72.4749 9.94511 71.7924 9.17738ZM78.9381 11.7877C77.9804 10.8489 73.6693 6.56012 72.7152 5.60395C71.9456 4.83273 71.7958 4.07896 72.1998 3.24143C72.5828 2.45277 73.3315 2.02005 74.2021 2.08635C75.0553 2.15265 75.7761 2.77382 75.999 3.72999C76.107 4.18714 76.3194 4.50819 76.6955 4.74549C76.8487 4.6408 76.8487 4.49074 76.8626 4.34766C76.988 3.07044 76.2462 1.84905 75.0797 1.40237C73.8295 0.924285 72.3774 1.35701 71.667 2.41787C70.9148 3.54155 70.9705 5.00372 71.869 5.97735C72.656 6.82883 76.8626 10.9571 77.6531 11.8086C78.0814 12.2762 78.4436 12.3844 78.9381 11.7877ZM71.3118 23.185C70.9218 24.4762 71.4859 25.8336 72.6246 26.4339C73.8365 27.0725 75.4175 26.7724 76.2428 25.7394C77.1168 24.6506 77.1064 23.014 76.1662 22.0055C75.3095 21.0877 71.068 16.8826 70.1835 15.9892C69.9641 15.7694 69.7761 15.5844 69.4696 15.902C69.1493 16.237 69.4035 16.4115 69.6055 16.6139C70.4203 17.4375 74.5852 21.5832 75.3861 22.4207C76.1 23.1675 76.2219 23.9841 75.797 24.8077C75.414 25.5545 74.6513 25.9732 73.833 25.893C72.9415 25.8057 72.2485 25.2125 72.0396 24.2563C71.9351 23.7992 71.7401 23.4607 71.3118 23.185ZM76.1313 18.9625C77.0959 17.9853 81.4036 13.6407 82.3647 12.688C83.1029 11.9587 83.9457 11.7912 84.7396 12.168C85.4744 12.517 85.9759 13.3266 85.9306 14.0909C85.8784 14.9842 85.2794 15.6961 84.2869 15.9788C83.8482 16.1044 83.5173 16.3138 83.3154 16.7325C83.6044 16.8966 83.89 16.8966 84.179 16.8582C85.5127 16.6767 86.4773 15.8217 86.7072 14.6108C86.9509 13.3266 86.4216 12.1052 85.3595 11.498C84.28 10.8804 82.8174 11.0583 81.8702 11.9517C81.2016 12.5798 77.2039 16.6244 76.5492 17.2665C76.0826 17.7306 75.4558 18.1354 76.1313 18.9625ZM72.5271 23.4607C72.2659 24.183 72.4993 24.8984 73.1156 25.2858C73.7216 25.6696 74.7036 25.558 75.1946 25.0485C75.7378 24.4866 75.8597 23.5339 75.3199 22.9232C74.4389 21.9322 70.1383 17.6783 69.205 16.7326C69.0552 16.5825 68.8916 16.4953 68.707 16.6872C68.5433 16.8617 68.4493 17.0501 68.6339 17.263C68.8568 17.5177 69.0901 17.762 69.3234 18.0063C69.9363 18.6554 73.8922 22.6336 74.4981 23.2897C74.8672 23.691 74.9056 24.1237 74.4563 24.4866C74.0176 24.8391 73.631 24.6402 73.335 24.2598C73.0947 23.9562 72.9032 23.6247 72.5271 23.4607ZM64.6605 12.4821C63.689 12.2413 62.9995 12.524 62.6512 13.2533C62.31 13.9687 62.4945 14.8062 63.097 15.2774C63.7308 15.7764 64.6536 15.7415 65.2769 15.1482C66.0779 14.384 70.0895 10.3604 70.8556 9.56125C71.0402 9.36932 71.4789 9.19134 71.1168 8.81446C70.7477 8.43059 70.5074 8.81795 70.281 9.03082C69.501 9.77761 65.5485 13.8222 64.7023 14.5026C64.274 14.8446 63.8492 14.883 63.5149 14.4189C63.2049 13.9897 63.3407 13.5674 63.776 13.3092C64.1173 13.1033 64.3576 12.8206 64.6605 12.4821ZM83.378 15.4693C84.3113 15.7275 84.9938 15.4693 85.3525 14.7783C85.7077 14.1013 85.5754 13.2847 85.0287 12.7822C84.4715 12.2692 83.5348 12.1541 82.9637 12.6636C81.9921 13.5325 77.7262 17.8597 76.7999 18.7775C76.6432 18.931 76.584 19.0986 76.7721 19.2765C76.9497 19.444 77.1412 19.5173 77.3501 19.3358C77.566 19.1439 77.775 18.9415 77.9839 18.7426C78.6316 18.1249 82.6398 14.1327 83.291 13.5185C83.688 13.1452 84.1059 13.0893 84.4889 13.529C84.8232 13.9129 84.7048 14.4189 84.1685 14.733C83.8656 14.9144 83.681 15.1831 83.378 15.4693ZM75.5289 4.51866C75.7274 3.61483 75.4662 2.9832 74.7802 2.62725C74.1011 2.27479 73.1957 2.45277 72.7395 3.03205C72.2172 3.69509 72.2207 4.54658 72.837 5.22008C73.6032 6.05761 77.7715 10.1894 78.5724 10.992C78.7988 11.2189 79.0495 11.4736 79.3664 11.1386C79.6833 10.8001 79.3177 10.6221 79.1401 10.4302C78.3844 9.61709 74.2021 5.53416 73.5091 4.65825C73.1922 4.25693 73.1365 3.84515 73.5405 3.50665C73.9862 3.12977 74.4076 3.29378 74.7105 3.73348C74.923 4.04057 75.1528 4.30579 75.5289 4.51866Z" fill="#ACACAC"/>
</svg>
