<svg width="64" height="58" viewBox="0 0 64 58" fill="none" xmlns="http://www.w3.org/2000/svg">
<path d="M26.1017 5.80029C23.2338 5.80029 20.4304 6.65071 18.0459 8.24401C15.6613 9.8373 13.8028 12.1019 12.7053 14.7515C11.6078 17.401 11.3207 20.3165 11.8802 23.1293C12.4397 25.942 13.8207 28.5257 15.8486 30.5536C17.8764 32.5814 20.4601 33.9625 23.2729 34.5219C26.0856 35.0814 29.0011 34.7943 31.6507 33.6968C34.3002 32.5993 36.5648 30.7408 38.1581 28.3563C39.7514 25.9717 40.6018 23.1683 40.6018 20.3004C40.5973 16.4561 39.0682 12.7706 36.3498 10.0523C33.6315 7.33396 29.946 5.80482 26.1017 5.80029ZM37.5553 18.8504H34.7167C34.6029 16.0289 33.8959 13.263 32.6418 10.7329C33.9878 11.6621 35.1216 12.8659 35.9685 14.2651C36.8154 15.6643 37.3562 17.227 37.5553 18.8504ZM24.6517 9.17324V18.8504H20.3822C20.7064 13.9561 22.5868 10.3656 24.6517 9.17324ZM24.6517 21.7504V31.4276C22.5868 30.2353 20.7064 26.6447 20.3822 21.7504H24.6517ZM27.5517 31.4276V21.7504H31.8212C31.497 26.6447 29.6166 30.2353 27.5517 31.4276ZM27.5517 18.8504V9.17324C29.6166 10.3656 31.497 13.9561 31.8212 18.8504H27.5517ZM19.5616 10.7329C18.3075 13.263 17.6005 16.0289 17.4867 18.8504H14.6481C14.8472 17.227 15.388 15.6643 16.2349 14.2651C17.0818 12.8659 18.2156 11.6621 19.5616 10.7329ZM14.6481 21.7504H17.4867C17.6005 24.572 18.3075 27.3379 19.5616 29.868C18.2156 28.9388 17.0818 27.7349 16.2349 26.3358C15.388 24.9366 14.8472 23.3738 14.6481 21.7504ZM32.6418 29.868C33.8959 27.3379 34.6029 24.572 34.7167 21.7504H37.5553C37.3562 23.3738 36.8154 24.9366 35.9685 26.3358C35.1216 27.7349 33.9878 28.9388 32.6418 29.868Z" fill="#FF4B55"/>
<path d="M52.2005 33.3503V7.25007C52.1982 5.32792 51.4337 3.48514 50.0745 2.12597C48.7153 0.76681 46.8726 0.00224498 44.9504 0H7.25007C5.32792 0.00224498 3.48514 0.76681 2.12597 2.12597C0.76681 3.48514 0.00224498 5.32792 0 7.25007V33.3503C0.00224498 35.2725 0.76681 37.1152 2.12597 38.4744C3.48514 39.8336 5.32792 40.5981 7.25007 40.6004H17.4002V47.8504C17.4 48.1197 17.4748 48.3838 17.6163 48.6129C17.7578 48.842 17.9603 49.0272 18.2012 49.1477C18.442 49.2681 18.7117 49.3191 18.9799 49.2949C19.2481 49.2706 19.5042 49.1721 19.7196 49.0104L30.9331 40.6004H44.9504C46.8726 40.5981 48.7153 39.8336 50.0745 38.4744C51.4337 37.1152 52.1982 35.2725 52.2005 33.3503ZM30.4503 37.7003C30.1367 37.7002 29.8315 37.8019 29.5809 37.9903L20.3002 44.9504V39.1504C20.3003 38.9599 20.2629 38.7713 20.19 38.5953C20.1172 38.4194 20.0104 38.2595 19.8757 38.1248C19.7411 37.9901 19.5812 37.8833 19.4052 37.8105C19.2292 37.7377 19.0406 37.7002 18.8502 37.7003H7.25007C6.09675 37.6991 4.99104 37.2404 4.17552 36.4249C3.36001 35.6093 2.90129 34.5036 2.90003 33.3503V7.25007C2.90129 6.09675 3.36001 4.99104 4.17552 4.17552C4.99104 3.36001 6.09675 2.90129 7.25007 2.90003H44.9504C46.1037 2.90129 47.2094 3.36001 48.025 4.17552C48.8405 4.99104 49.2992 6.09675 49.3005 7.25007V33.3503C49.2992 34.5036 48.8405 35.6093 48.025 36.4249C47.2094 37.2404 46.1037 37.6991 44.9504 37.7003H30.4503Z" fill="#FF4B55"/>
<path d="M56.5503 8.69971C56.1657 8.69971 55.7969 8.85248 55.525 9.12441C55.253 9.39634 55.1003 9.76515 55.1003 10.1497C55.1003 10.5343 55.253 10.9031 55.525 11.175C55.7969 11.447 56.1657 11.5997 56.5503 11.5997C57.7036 11.601 58.8093 12.0597 59.6248 12.8752C60.4403 13.6907 60.899 14.7965 60.9003 15.9498V42.05C60.899 43.2033 60.4403 44.309 59.6248 45.1246C58.8093 45.9401 57.7036 46.3988 56.5503 46.4001H44.9502C44.7597 46.3999 44.5711 46.4374 44.3951 46.5102C44.2192 46.583 44.0593 46.6898 43.9246 46.8245C43.7899 46.9592 43.6831 47.1191 43.6103 47.295C43.5375 47.471 43.5 47.6596 43.5002 47.8501V53.6501L34.2195 46.6901C33.9118 46.4595 33.5252 46.3605 33.1446 46.415C32.764 46.4695 32.4206 46.673 32.1901 46.9806C31.9595 47.2883 31.8605 47.6749 31.915 48.0555C31.9695 48.4361 32.173 48.7795 32.4806 49.0101L44.0807 57.7102C44.3312 57.899 44.6365 58.0008 44.9502 58.0002C45.1406 58.0002 45.3292 57.9628 45.5051 57.8899C45.6811 57.8171 45.841 57.7103 45.9756 57.5756C46.1103 57.441 46.2171 57.2811 46.2899 57.1051C46.3628 56.9292 46.4002 56.7406 46.4002 56.5501V49.3001H56.5503C58.4724 49.2978 60.3152 48.5333 61.6744 47.1741C63.0335 45.8149 63.7981 43.9722 63.8003 42.05V15.9498C63.7981 14.0276 63.0335 12.1848 61.6744 10.8257C60.3152 9.46652 58.4724 8.70195 56.5503 8.69971Z" fill="#FF4B55"/>
</svg>
