<svg width="36" height="58" viewBox="0 0 36 58" fill="none" xmlns="http://www.w3.org/2000/svg">
<path d="M27.3458 0H8.04322C3.60968 0 0 3.60968 0 8.04322V49.8674C0 54.3009 3.60968 57.9106 8.04322 57.9106H27.3458C31.7793 57.9106 35.389 54.3009 35.389 49.8674V8.04322C35.389 3.60685 31.7793 0 27.3458 0ZM32.1729 49.8645C32.1729 52.5258 30.0071 54.6916 27.3458 54.6916H8.04322C5.38196 54.6916 3.21616 52.5258 3.21616 49.8645V8.04322C3.21616 5.38196 5.38196 3.21615 8.04322 3.21615H27.3458C30.0071 3.21615 32.1729 5.38196 32.1729 8.04322V49.8645Z" fill="#FF4B55"/>
<path d="M17.6927 53.0807C19.4689 53.0807 20.9089 51.6408 20.9089 49.8646C20.9089 48.0884 19.4689 46.6484 17.6927 46.6484C15.9165 46.6484 14.4766 48.0884 14.4766 49.8646C14.4766 51.6408 15.9165 53.0807 17.6927 53.0807Z" fill="#FF4B55"/>
<path d="M20.9104 4.82471H14.4753C13.5863 4.82471 12.8672 5.54381 12.8672 6.43278C12.8672 7.32176 13.5863 8.04086 14.4753 8.04086H20.9104C21.7994 8.04086 22.5185 7.32176 22.5185 6.43278C22.5185 5.54381 21.7994 4.82471 20.9104 4.82471Z" fill="#FF4B55"/>
</svg>
