<svg width="198" height="198" viewBox="0 0 198 198" fill="none" xmlns="http://www.w3.org/2000/svg">
<path d="M188.1 39.6H145.2V13.2C145.2 5.91035 139.29 0 132 0H66C58.7104 0 52.8 5.91035 52.8 13.2V39.6H9.9C4.43277 39.6 3.09128e-06 44.0328 3.09128e-06 49.5V89.1C-0.00160824 90.2811 0.62681 91.3736 1.65 91.9649L6.6 94.7864V174.9C6.6 180.367 11.0328 184.8 16.5 184.8H49.5V194.7C49.5 196.522 50.9776 198 52.8 198H145.2C147.022 198 148.5 196.522 148.5 194.7V184.8H181.5C186.967 184.8 191.4 180.367 191.4 174.9V94.7864L196.35 91.9649C197.373 91.3736 198.002 90.2811 198 89.1V49.5C198 44.0328 193.567 39.6 188.1 39.6ZM132 39.6V26.4H138.6V39.6H132ZM125.4 39.6H72.6V19.8H125.4V39.6ZM66 6.6H132C135.645 6.6 138.6 9.55517 138.6 13.2V19.8H132V16.5C132 14.6776 130.522 13.2 128.7 13.2H69.3C67.4776 13.2 66 14.6776 66 16.5V19.8H59.4V13.2C59.4 9.55517 62.3552 6.6 66 6.6ZM59.4 26.4H66V39.6H59.4V26.4ZM16.5 178.2C14.6776 178.2 13.2 176.722 13.2 174.9V98.5585L24.75 105.158C25.2511 105.449 25.8199 105.602 26.4 105.6H66V108.9C66 110.722 67.4776 112.2 69.3 112.2V115.5C69.3161 126.768 75.7066 137.056 85.8 142.064V145.978L66.5076 151.226C56.4835 154.003 49.5322 163.112 49.5 173.514V178.2H16.5ZM79.2 154.612L83.8197 153.355L95.7 163.255V171.6H102.3V163.248L114.18 153.348L118.8 154.602V160.324L99 180.124L79.2 160.324V154.612ZM106.752 150.952L99 157.411L91.2479 150.956C91.9698 150.343 92.3903 149.447 92.4 148.5V144.435C96.7409 145.455 101.259 145.455 105.6 144.435V148.5C105.611 149.446 106.03 150.34 106.752 150.952ZM99 138.6C86.2479 138.585 75.9145 128.252 75.9 115.5V112.2H84.7671C92.6481 112.223 100.208 109.09 105.764 103.5L108.075 101.191C111.212 106.338 116.251 110.041 122.1 111.497V115.5C122.085 128.252 111.752 138.585 99 138.6ZM125.4 105.439C120.034 104.688 115.384 101.335 112.978 96.4783L111.854 94.2256C111.378 93.2782 110.479 92.6159 109.433 92.4467C108.388 92.2759 107.324 92.6191 106.573 93.3668L101.1 98.8356C96.7764 103.18 90.8966 105.616 84.7671 105.6H72.6V99C72.6 84.4191 84.4191 72.6 99 72.6C113.581 72.6 125.4 84.4191 125.4 99V105.439ZM141.9 191.4H132V174.9H125.4V191.4H72.6V174.9H66V191.4H56.1V173.514C56.1242 166.083 61.0919 159.575 68.2542 157.591L72.6 156.42V161.7C72.6 162.575 72.948 163.414 73.5668 164.033L96.6668 187.133C97.9559 188.421 100.044 188.421 101.333 187.133L124.433 164.033C125.052 163.414 125.4 162.575 125.4 161.7V156.42L129.736 157.601C136.897 159.583 141.868 166.084 141.9 173.514V191.4ZM184.8 174.9C184.8 176.722 183.322 178.2 181.5 178.2H148.5V173.514C148.468 163.108 141.512 153.996 131.481 151.223L112.2 145.978V142.064C122.293 137.056 128.684 126.768 128.7 115.5V112.2C130.522 112.2 132 110.722 132 108.9V105.6H171.6C172.178 105.603 172.749 105.453 173.25 105.165L184.8 98.5649V174.9ZM191.4 87.1857L170.722 99H132C132 80.7743 117.226 66 99 66C80.7743 66 66 80.7743 66 99H27.2782L6.6 87.1857V49.5C6.6 47.6776 8.07759 46.2 9.9 46.2H188.1C189.922 46.2 191.4 47.6776 191.4 49.5V87.1857Z" fill="#F0F0F0"/>
</svg>
