<svg width="169" height="247" viewBox="0 0 169 247" fill="none" xmlns="http://www.w3.org/2000/svg">
<path d="M139.834 150.337C137.563 150.337 135.722 152.179 135.722 154.45V242.731C135.722 245.002 137.563 246.844 139.834 246.844C142.106 246.844 143.947 245.002 143.947 242.731V154.45C143.947 152.178 142.106 150.337 139.834 150.337Z" fill="#F0F0F0"/>
<path d="M117.802 58.867C116.236 57.4451 113.848 57.443 112.279 58.8614L99.3634 71.7666C97.8633 73.2655 95.8295 74.1074 93.7089 74.1074H82.1201C79.8488 74.1074 78.0073 75.9489 78.0073 78.2202C78.0073 80.4915 79.8488 82.333 82.1201 82.333H113.056C115.328 82.333 117.169 80.4915 117.169 78.2202C117.169 75.9489 115.328 74.1074 113.056 74.1074C111.431 74.1074 110.617 72.1422 111.766 70.9928L118.082 64.6769C119.609 62.9952 119.484 60.3939 117.802 58.867Z" fill="#F0F0F0"/>
<path d="M163.438 133.331C158.421 120.718 149.687 109.93 138.395 102.399L134.273 99.6637C129.866 96.7398 129.491 90.4026 132.735 86.2264C148.072 66.4821 147.858 38.0253 130.849 18.425C111.496 -3.87703 77.7279 -6.2681 55.4258 13.0851C33.1238 32.4382 30.7328 66.2066 50.0859 88.5087C51.8881 90.5857 53.8458 92.5179 55.9403 94.2893C58.45 96.4119 58.5329 100.44 55.8515 102.341V102.341C33.7227 118.079 15.4343 138.613 2.35257 162.408C0.815422 165.205 0.00674585 168.344 6.25914e-05 171.535V174.553C-0.0127898 179.543 1.95414 184.334 5.47005 187.875C8.96231 191.389 13.7095 193.369 18.6638 193.378H29.015C33.4333 193.378 37.015 196.959 37.015 201.378V242.731C37.015 245.002 38.8565 246.844 41.1278 246.844C43.3991 246.844 45.2406 245.002 45.2406 242.731V201.378C45.2406 196.959 48.8223 193.378 53.2406 193.378H82.309C91.2969 193.407 98.6069 186.144 98.6362 177.156V177.156C98.6421 175.487 99.0043 173.801 100.011 172.469L104.226 166.896C116.839 150.366 126.673 131.89 133.34 112.196V112.196C133.782 110.865 135.375 110.313 136.497 111.154C145.129 117.624 151.828 126.36 155.833 136.416C158.866 143.93 160.416 151.961 160.398 160.064V242.731C160.398 245.002 162.24 246.844 164.511 246.844C166.782 246.844 168.624 245.002 168.624 242.731V160.064C168.639 150.901 166.878 141.823 163.438 133.331ZM18.6638 185.152C15.9108 185.145 13.2735 184.043 11.3349 182.088C9.33966 180.089 8.22098 177.378 8.22561 174.553V171.535C8.22509 169.729 8.67956 167.953 9.54581 166.369C14.5593 157.259 20.3816 148.631 26.9366 140.588C31.17 135.393 39.1942 138.076 39.9813 144.731L40.7861 151.536C41.3488 156.293 37.6322 160.475 32.8415 160.475H28.7895C26.5182 160.475 24.6767 162.317 24.6767 164.588C24.6767 166.86 26.5182 168.701 28.7895 168.701H35.6579C39.715 168.701 43.1297 171.738 43.6032 175.767L43.6562 176.219C44.215 180.974 40.4991 185.152 35.7109 185.152H18.6638ZM91.2217 8.30659C98.2044 8.42343 98.5264 16.6952 92.0896 19.4041L84.8688 22.4429C82.7167 23.3486 80.2764 23.2689 78.188 22.2247L77.8058 22.0336C72.3144 19.2879 72.0285 11.7951 77.9247 10.0836C82.2501 8.82809 86.734 8.2315 91.2217 8.30659ZM56.0597 24.2479C57.457 22.5998 59.8134 22.2358 61.7459 23.2023V23.2023C65.5744 25.1172 65.3926 30.6414 61.4464 32.3004L60.1169 32.8592C55.5459 34.7809 51.3203 30.4597 54.2825 26.4832C54.8508 25.7202 55.4435 24.9747 56.0597 24.2479ZM45.2752 52.4264C45.358 49.6011 47.2494 47.2116 49.8544 46.1147L115.088 18.6474C116.74 17.952 118.652 18.1739 120.009 19.3441V19.3441C122.468 21.4649 121.759 25.2784 118.883 26.7852L55.5588 59.9558C51.0109 62.3381 45.3932 59.8391 45.2693 54.7065C45.251 53.9469 45.2529 53.1866 45.2752 52.4264ZM51.528 76.43V76.43C50.2537 74.2668 51.1946 71.5465 53.4183 70.3811L122.654 34.0947C126.431 32.1152 131.176 33.4302 132.699 37.4134C140.426 57.6365 132.674 81.074 113.397 92.4297C91.8938 105.096 64.1943 97.9331 51.528 76.43ZM60.1403 185.152C56.0835 185.152 52.6689 182.116 52.195 178.087L45.8571 124.198C45.6304 122.271 46.3501 120.347 47.8239 119.084V119.084C51.0997 116.277 56.1098 118.013 57.1558 122.198L70.4063 175.212C71.6683 180.261 67.8495 185.152 62.6451 185.152H60.1403ZM88.1121 182.754C86.5806 184.294 84.497 185.158 82.3254 185.152V185.152C81.7647 185.152 81.2758 184.77 81.1398 184.226L78.4625 173.517C77.8509 171.071 79.7011 168.701 82.2226 168.701V168.701C84.4816 168.716 86.6366 169.652 88.1902 171.292C91.2692 174.505 91.2342 179.583 88.1121 182.754ZM125.579 109.58C119.186 128.431 109.764 146.115 97.6825 161.936L95.0269 165.448C94.7638 165.796 94.2996 165.775 93.9975 165.46V165.46C90.9026 162.283 86.6582 160.486 82.2226 160.475H81.4506C77.7786 160.475 74.5781 157.976 73.6888 154.413L63.3188 112.871C62.5856 109.934 63.7291 106.848 66.199 105.098V105.098C68.2842 103.621 70.9763 103.37 73.3964 104.191C86.8332 108.75 101.539 107.739 114.214 101.406C116.859 100.084 120.028 100.087 122.494 101.717L122.865 101.962C125.381 103.626 126.536 106.719 125.579 109.58V109.58Z" fill="#F0F0F0"/>
</svg>
