<svg width="24" height="24" viewBox="0 0 24 24" fill="none" xmlns="http://www.w3.org/2000/svg">
<path d="M17.25 11.6719H18.75C19.1383 11.6719 19.4531 11.9867 19.4531 12.375C19.4531 12.7633 19.1383 13.0781 18.75 13.0781H17.25C16.8617 13.0781 16.5469 12.7633 16.5469 12.375C16.5469 11.9867 16.8617 11.6719 17.25 11.6719Z" fill="#767676"/>
<path d="M17.25 14.6719H18.75C19.1383 14.6719 19.4531 14.9867 19.4531 15.375C19.4531 15.7633 19.1383 16.0781 18.75 16.0781H17.25C16.8617 16.0781 16.5469 15.7633 16.5469 15.375C16.5469 14.9867 16.8617 14.6719 17.25 14.6719Z" fill="#767676"/>
<path d="M17.25 17.6719H18.75C19.1383 17.6719 19.4531 17.9867 19.4531 18.375C19.4531 18.7633 19.1383 19.0781 18.75 19.0781H17.25C16.8617 19.0781 16.5469 18.7633 16.5469 18.375C16.5469 17.9867 16.8617 17.6719 17.25 17.6719Z" fill="#767676"/>
<path d="M11.25 11.6719H12.75C13.1383 11.6719 13.4531 11.9867 13.4531 12.375C13.4531 12.7633 13.1383 13.0781 12.75 13.0781H11.25C10.8617 13.0781 10.5469 12.7633 10.5469 12.375C10.5469 11.9867 10.8617 11.6719 11.25 11.6719Z" fill="#767676"/>
<path d="M11.25 14.6719H12.75C13.1383 14.6719 13.4531 14.9867 13.4531 15.375C13.4531 15.7633 13.1383 16.0781 12.75 16.0781H11.25C10.8617 16.0781 10.5469 15.7633 10.5469 15.375C10.5469 14.9867 10.8617 14.6719 11.25 14.6719Z" fill="#767676"/>
<path d="M11.25 17.6719H12.75C13.1383 17.6719 13.4531 17.9867 13.4531 18.375C13.4531 18.7633 13.1383 19.0781 12.75 19.0781H11.25C10.8617 19.0781 10.5469 18.7633 10.5469 18.375C10.5469 17.9867 10.8617 17.6719 11.25 17.6719Z" fill="#767676"/>
<path d="M5.25 11.6719H6.75C7.13831 11.6719 7.45312 11.9867 7.45312 12.375C7.45312 12.7633 7.13831 13.0781 6.75 13.0781H5.25C4.86169 13.0781 4.54688 12.7633 4.54688 12.375C4.54688 11.9867 4.86169 11.6719 5.25 11.6719Z" fill="#767676"/>
<path d="M5.25 14.6719H6.75C7.13831 14.6719 7.45312 14.9867 7.45312 15.375C7.45312 15.7633 7.13831 16.0781 6.75 16.0781H5.25C4.86169 16.0781 4.54688 15.7633 4.54688 15.375C4.54688 14.9867 4.86169 14.6719 5.25 14.6719Z" fill="#767676"/>
<path d="M5.25 17.6719H6.75C7.13831 17.6719 7.45312 17.9867 7.45312 18.375C7.45312 18.7633 7.13831 19.0781 6.75 19.0781H5.25C4.86169 19.0781 4.54688 18.7633 4.54688 18.375C4.54688 17.9867 4.86169 17.6719 5.25 17.6719Z" fill="#767676"/>
<path d="M2.10938 3.04688H3.79688V1.875C3.79688 1.48669 4.11169 1.17188 4.5 1.17188C4.88831 1.17188 5.20312 1.48669 5.20312 1.875V3.04688H11.2969V1.875C11.2969 1.48669 11.6117 1.17188 12 1.17188C12.3883 1.17188 12.7031 1.48669 12.7031 1.875V3.04688H18.7969V1.875C18.7969 1.48669 19.1117 1.17188 19.5 1.17188C19.8883 1.17188 20.2031 1.48669 20.2031 1.875V3.04688H21.8906C23.0537 3.04688 24 3.99314 24 5.15625V20.7188C24 21.8819 23.0537 22.8281 21.8906 22.8281H2.10938C0.946266 22.8281 0 21.8819 0 20.7188C0 20.2649 0 5.55117 0 5.15625C0 3.99314 0.946266 3.04688 2.10938 3.04688ZM22.5938 5.15625C22.5938 4.76855 22.2783 4.45312 21.8906 4.45312H20.2031V5.625C20.2031 6.01331 19.8883 6.32812 19.5 6.32812C19.1117 6.32812 18.7969 6.01331 18.7969 5.625V4.45312H12.7031V5.625C12.7031 6.01331 12.3883 6.32812 12 6.32812C11.6117 6.32812 11.2969 6.01331 11.2969 5.625V4.45312H5.20312V5.625C5.20312 6.01331 4.88831 6.32812 4.5 6.32812C4.11169 6.32812 3.79688 6.01331 3.79688 5.625V4.45312H2.10938C1.72167 4.45312 1.40625 4.76855 1.40625 5.15625V7.92188H22.5938V5.15625ZM2.10938 21.4219H21.8906C22.2783 21.4219 22.5938 21.1065 22.5938 20.7188V9.32812H1.40625V20.7188C1.40625 21.1065 1.72167 21.4219 2.10938 21.4219Z" fill="#767676"/>
</svg>
