<svg width="28" height="29" viewBox="0 0 28 29" fill="none" xmlns="http://www.w3.org/2000/svg">
<path d="M25.5391 5.06152H2.46094C1.10124 5.06152 0 6.1696 0 7.52246V22.2881C0 23.649 1.10934 24.749 2.46094 24.749H25.5391C26.8874 24.749 28 23.6536 28 22.2881V7.52246C28 6.17201 26.9031 5.06152 25.5391 5.06152ZM25.1944 6.70215C24.6916 7.20227 16.0389 15.8094 15.7402 16.1066C15.2753 16.5714 14.6573 16.8274 14 16.8274C13.3427 16.8274 12.7247 16.5714 12.2583 16.1051C12.0574 15.9052 3.50016 7.39307 2.80558 6.70215H25.1944ZM1.64062 21.9542V7.85742L8.7302 14.9096L1.64062 21.9542ZM2.80662 23.1084L9.89341 16.0667L11.0998 17.2667C11.8745 18.0414 12.9044 18.468 14 18.468C15.0956 18.468 16.1255 18.0414 16.8987 17.2682L18.1066 16.0667L25.1934 23.1084H2.80662ZM26.3594 21.9542L19.2698 14.9096L26.3594 7.85742V21.9542Z" fill="#242424"/>
</svg>
