<svg width="28" height="28" viewBox="0 0 28 28" fill="none" xmlns="http://www.w3.org/2000/svg">
<path d="M27.2379 20.5492L23.3304 16.6417C21.9349 15.2462 19.5625 15.8044 19.0043 17.6186C18.5856 18.8746 17.1901 19.5724 15.9341 19.2932C13.1431 18.5954 9.37512 14.9671 8.67736 12.0364C8.2587 10.7804 9.09602 9.38488 10.352 8.96628C12.1662 8.40807 12.7244 6.03567 11.3289 4.64014L7.42138 0.732653C6.30496 -0.244218 4.63032 -0.244218 3.65345 0.732653L1.00195 3.38416C-1.64956 6.17522 1.28105 13.5715 7.84004 20.1305C14.399 26.6895 21.7953 29.7597 24.5864 26.9686L27.2379 24.3171C28.2148 23.2007 28.2148 21.526 27.2379 20.5492Z" fill="#242424"/>
</svg>
